<?xml version="1.0" standalone="no"?>
<!DOCTYPE svg PUBLIC "-//W3C//DTD SVG 20010904//EN"
 "http://www.w3.org/TR/2001/REC-SVG-20010904/DTD/svg10.dtd">
<svg version="1.0" xmlns="http://www.w3.org/2000/svg"
 width="900.000000pt" height="700.000000pt" viewBox="0 0 900.000000 700.000000"
 preserveAspectRatio="xMidYMid meet">

<g transform="translate(0.000000,700.000000) scale(0.100000,-0.100000)"
fill="#000000" stroke="none">
<path d="M3285 6871 c-6 -5 -41 -16 -80 -26 -38 -9 -79 -22 -90 -28 -22 -12
-27 -13 -67 -15 -15 -1 -33 -8 -40 -15 -7 -8 -18 -12 -24 -10 -7 2 -18 -2 -26
-10 -7 -8 -31 -17 -53 -21 -22 -4 -71 -24 -110 -45 -38 -21 -110 -47 -159 -60
-93 -23 -137 -42 -209 -91 -25 -16 -68 -40 -96 -53 -28 -13 -71 -42 -95 -65
-51 -47 -104 -75 -245 -132 -129 -51 -262 -118 -326 -164 -27 -20 -80 -45
-117 -56 -109 -33 -153 -103 -113 -181 9 -16 19 -60 24 -97 8 -67 74 -277 92
-297 5 -5 9 -17 9 -26 0 -22 47 -117 99 -199 44 -69 101 -182 101 -200 0 -26
31 -67 63 -85 34 -18 37 -18 99 -1 81 22 74 16 182 150 17 22 51 61 75 88 24
26 40 48 36 48 -5 0 2 8 13 19 12 10 22 23 22 28 0 6 9 17 20 24 10 8 20 20
22 28 2 7 14 26 28 41 60 66 83 96 91 118 6 15 17 22 36 22 24 1 25 2 11 11
-24 13 -23 25 2 32 10 3 27 21 37 41 9 20 20 36 25 36 4 0 8 4 8 10 0 17 43
60 59 60 14 0 14 1 1 10 -13 8 -9 15 18 40 19 16 31 34 27 40 -3 5 2 10 12 10
25 1 53 24 53 43 0 19 26 35 49 32 9 -1 10 0 4 2 -16 5 -17 23 -2 23 6 0 9 6
6 14 -5 13 36 66 53 66 4 0 11 14 15 31 4 19 15 33 26 36 10 3 16 9 13 14 -3
5 7 9 23 9 27 1 27 1 9 15 -19 14 -19 15 -2 15 15 0 16 3 6 15 -10 12 -9 15 5
15 14 0 12 4 -9 21 -52 41 -21 52 52 19 23 -10 42 -15 42 -11 0 5 -15 16 -34
25 -37 18 -72 61 -56 71 6 3 16 3 23 -1 8 -5 8 -2 -2 9 -11 14 -11 17 1 17 7
0 23 -6 34 -14 17 -12 22 -12 38 0 17 12 17 14 4 19 -24 9 -28 40 -8 53 12 7
16 19 13 35 -5 24 -4 25 31 17 42 -9 43 -7 16 18 -19 18 -19 18 16 31 33 12
34 14 17 27 -16 13 -15 14 11 8 21 -5 27 -4 22 5 -9 14 9 14 36 0 30 -16 36 0
8 21 -14 11 -19 20 -11 20 9 0 12 8 9 24 -4 17 -1 23 9 19 11 -5 18 8 14 30
-2 11 14 8 27 -5 9 -9 12 -9 12 1 0 7 6 11 14 8 10 -4 13 -1 10 8 -3 8 3 16
16 20 27 8 54 50 44 67 -6 11 -5 11 8 0 14 -11 17 -10 23 7 4 13 11 18 22 14
13 -5 15 -2 11 15 -4 12 -2 22 3 22 5 0 9 12 9 26 0 14 4 23 10 19 14 -9 13 8
-2 23 -14 14 -90 16 -103 3z"/>
<path d="M5426 6683 c-13 -13 -5 -24 14 -18 15 5 20 2 20 -12 1 -27 21 -48 68
-68 39 -17 42 -22 42 -57 0 -27 4 -38 15 -38 8 0 15 -9 15 -19 0 -11 3 -27 7
-37 4 -12 3 -15 -5 -10 -7 4 -12 17 -12 28 0 12 -3 18 -7 14 -4 -4 -6 -27 -4
-53 2 -41 9 -51 60 -102 32 -31 70 -75 85 -98 14 -24 30 -43 35 -43 10 0 35
-51 33 -67 -2 -6 11 -25 28 -42 17 -16 37 -46 45 -65 8 -19 20 -36 27 -38 15
-5 19 -58 5 -58 -6 0 2 -11 17 -25 14 -13 26 -30 26 -38 0 -8 7 -20 15 -27 9
-7 14 -19 11 -26 -2 -7 4 -20 15 -30 10 -9 19 -21 19 -26 0 -5 7 -25 17 -46 9
-20 15 -42 14 -49 -1 -6 3 -14 8 -18 6 -3 8 -19 4 -35 -3 -19 -1 -30 6 -30 6
0 11 -7 11 -15 0 -8 4 -15 8 -15 5 0 8 -14 7 -32 -1 -17 4 -43 11 -57 8 -14
14 -34 14 -44 0 -10 11 -39 25 -66 13 -27 22 -51 19 -53 -2 -3 2 -18 11 -34 8
-16 15 -36 15 -45 0 -19 25 -106 46 -159 12 -33 22 -87 28 -155 3 -37 55 -175
66 -175 4 0 18 -16 31 -35 29 -43 40 -45 32 -5 -6 33 8 40 29 13 43 -54 91
-93 116 -93 26 0 102 60 102 81 0 4 15 24 33 43 17 19 46 51 62 71 17 20 59
67 95 104 94 99 127 137 157 184 15 23 39 56 53 73 32 37 171 300 173 326 1
10 4 18 8 18 12 0 63 85 62 103 -1 9 2 17 7 17 4 0 11 19 15 42 6 31 4 44 -7
52 -64 49 -69 55 -79 114 -10 57 -13 62 -65 97 -30 21 -54 41 -54 44 0 4 -15
14 -33 23 -18 9 -57 38 -87 65 -70 64 -194 147 -268 180 -31 13 -94 42 -139
64 -46 21 -86 39 -90 39 -5 0 -26 10 -48 21 -38 21 -146 68 -210 91 -16 6 -44
22 -63 34 -24 17 -47 23 -84 22 -45 0 -48 -1 -28 -11 26 -14 27 -33 2 -30 -90
13 -116 25 -74 36 9 3 0 5 -20 6 -21 0 -38 -3 -38 -8 0 -5 -8 -12 -17 -14 -17
-4 -17 -5 0 -6 19 -1 23 -16 5 -27 -7 -4 -8 -3 -4 4 4 7 -3 14 -19 18 -13 3
-23 10 -20 14 11 18 -53 68 -111 85 -32 10 -67 25 -76 33 -9 7 -22 11 -27 7
-6 -3 -11 1 -11 9 0 9 -7 16 -15 16 -8 0 -15 -5 -15 -11 0 -5 -4 -7 -10 -4 -5
3 -10 17 -10 31 0 16 -6 24 -18 24 -10 0 -23 5 -29 11 -13 13 -87 22 -97 12z
m171 -175 c-3 -7 -5 -2 -5 12 0 14 2 19 5 13 2 -7 2 -19 0 -25z m478 -108 c3
-5 1 -10 -4 -10 -6 0 -11 5 -11 10 0 6 2 10 4 10 3 0 8 -4 11 -10z"/>
<path d="M5352 6660 c7 -11 15 -20 18 -20 3 0 6 9 7 20 1 14 -4 20 -18 20 -17
0 -18 -3 -7 -20z"/>
<path d="M3707 6633 c-4 -3 -7 -13 -7 -22 1 -13 3 -13 11 2 11 19 8 33 -4 20z"/>
<path d="M4562 6574 c-7 -14 -12 -31 -12 -39 0 -7 -10 -26 -22 -42 -38 -47
-48 -71 -48 -111 0 -21 -3 -42 -7 -46 -11 -11 -10 -90 1 -98 6 -4 5 -12 -2
-21 -7 -8 -10 -21 -6 -30 3 -9 -2 -31 -11 -51 -9 -19 -14 -40 -10 -46 3 -5 -1
-13 -9 -16 -9 -3 -16 -13 -16 -21 0 -10 6 -13 16 -9 12 5 15 2 9 -11 -11 -26
-15 -75 -16 -198 -2 -109 -20 -195 -53 -249 -11 -17 -11 -30 -2 -65 10 -39 15
-45 41 -48 17 -2 35 -10 41 -18 6 -8 21 -15 33 -15 11 0 26 -9 33 -20 7 -11
16 -20 21 -20 4 0 23 -15 41 -33 18 -18 37 -32 43 -30 5 2 16 -8 23 -23 8 -14
25 -30 38 -35 15 -6 22 -15 18 -24 -3 -8 0 -14 7 -12 7 1 11 -7 10 -20 -2 -16
3 -23 15 -23 14 0 15 -2 2 -10 -23 -15 -38 -12 -43 8 -4 16 -5 16 -6 0 0 -10
-5 -18 -10 -18 -13 0 -24 31 -23 60 2 23 1 23 -7 5 -5 -11 -10 -14 -10 -7 -1
6 -6 12 -12 12 -7 0 -9 -10 -5 -25 4 -14 2 -25 -4 -25 -5 0 -10 6 -10 13 0 8
-12 24 -26 38 l-26 24 7 -25 c7 -24 7 -24 -9 -5 -16 21 -21 13 -16 -30 l2 -20
-16 20 c-15 20 -15 20 -16 -4 0 -33 -14 -17 -15 16 0 35 -25 43 -25 8 0 -21
-3 -24 -17 -17 -10 5 -24 7 -32 4 -10 -3 -12 0 -8 11 4 10 2 14 -7 11 -7 -3
-18 7 -24 21 -7 14 -16 24 -21 20 -6 -3 -14 3 -20 12 -14 23 -14 7 -1 -18 8
-15 7 -19 -4 -19 -8 0 -17 -6 -19 -12 -3 -7 -6 -1 -6 14 -1 15 -6 30 -11 33
-7 4 -7 13 0 26 8 13 7 19 0 19 -6 0 -13 -6 -16 -14 -3 -9 -12 -12 -22 -9 -11
5 -14 2 -9 -10 4 -11 1 -17 -8 -17 -9 0 -16 16 -21 45 -6 46 -18 63 -29 45 -3
-5 -1 -10 5 -10 7 0 9 -8 5 -20 -4 -12 -1 -27 5 -35 7 -8 10 -20 8 -27 -3 -7
-13 4 -23 25 -22 46 -35 55 -42 28 -4 -16 -9 -19 -23 -11 -10 6 -37 10 -59 10
-46 0 -47 1 -25 34 8 13 11 27 6 30 -5 3 -15 -12 -22 -34 -12 -36 -14 -38 -26
-22 -16 21 -18 52 -4 52 6 0 10 6 9 13 -1 6 -1 23 0 37 1 19 4 21 13 12 18
-18 28 -14 28 11 0 15 -6 23 -20 24 -15 1 -25 -13 -47 -73 -15 -41 -31 -74
-35 -74 -8 0 -13 34 -8 55 1 5 -2 6 -7 2 -4 -5 -8 -16 -8 -25 0 -10 -7 -16
-17 -14 -9 1 -18 -3 -21 -10 -2 -7 -3 0 -1 16 2 16 -1 34 -6 41 -15 18 -2 44
19 38 13 -3 23 5 35 28 19 39 20 52 4 47 -7 -3 -19 2 -27 9 -15 15 -15 16 15
31 19 10 22 21 23 79 0 38 3 93 6 123 4 38 2 49 -4 35 -5 -11 -10 -30 -10 -42
-1 -13 -5 -23 -10 -23 -11 0 -21 -71 -12 -85 19 -29 11 -61 -21 -85 -18 -13
-39 -32 -46 -42 -7 -10 -17 -16 -21 -13 -10 5 -82 -30 -92 -46 -3 -6 -28 -14
-54 -17 -41 -4 -47 -3 -42 11 4 11 0 15 -13 14 -10 -1 -17 -4 -14 -8 2 -5 -4
-22 -15 -39 l-19 -31 -6 26 c-5 20 -2 31 11 42 13 10 15 16 6 19 -8 4 -11 16
-7 32 l6 27 -20 -24 c-11 -14 -18 -30 -16 -36 3 -7 -2 -18 -11 -25 -13 -11
-15 -8 -16 21 0 19 -2 54 -4 79 -3 41 -2 43 11 26 7 -11 17 -16 21 -12 5 4 -1
14 -12 22 -17 12 -21 12 -34 -1 -13 -13 -17 -10 -38 20 -13 19 -23 39 -23 44
0 6 -4 11 -10 11 -5 0 -10 5 -10 11 0 6 9 8 23 4 18 -6 20 -5 10 6 -7 7 -13
21 -13 31 0 16 3 17 20 8 16 -9 20 -8 21 7 0 11 3 13 6 5 10 -26 21 0 12 31
-12 41 -11 43 3 29 17 -17 29 -15 22 3 -4 9 -1 15 7 15 10 0 9 4 -3 16 -18 18
-88 29 -88 13 0 -6 -7 -6 -19 1 -28 15 -35 12 -20 -6 12 -15 11 -16 -9 -10
-18 6 -21 4 -16 -11 3 -10 -10 0 -30 22 -20 22 -36 35 -36 28 0 -6 5 -15 10
-18 16 -10 11 -21 -11 -22 -12 -1 -27 -9 -33 -19 -17 -23 -56 -11 -49 16 4 17
1 18 -30 13 -19 -3 -37 -1 -41 5 -9 15 39 23 70 12 15 -6 29 -8 32 -5 3 3 1 5
-4 5 -6 0 -19 7 -30 16 -18 15 -18 15 4 11 15 -4 25 0 29 9 3 9 13 12 24 9 11
-4 19 -2 19 4 0 6 8 11 18 11 10 0 23 5 28 10 8 8 19 7 39 0 23 -9 26 -8 21 6
-5 12 -2 15 11 9 32 -12 53 -14 53 -4 0 5 18 9 41 9 22 0 49 5 60 11 15 7 24
7 35 -1 7 -7 21 -10 29 -6 21 8 19 36 -2 37 -40 3 -70 2 -113 -5 -40 -6 -53
-2 -100 24 -33 18 -47 30 -35 30 15 0 16 3 7 12 -7 7 -12 15 -12 19 0 13 43
18 64 7 18 -10 19 -9 8 4 -16 20 -5 48 19 48 10 0 19 6 19 13 0 8 9 18 21 23
20 9 20 10 -6 34 -18 17 -24 19 -20 8 5 -13 0 -19 -19 -24 -14 -3 -23 -10 -20
-15 3 -5 -15 -6 -40 -3 -31 5 -46 3 -46 -5 0 -6 -8 -11 -17 -12 -13 0 -11 -3
7 -11 24 -10 24 -11 -20 -22 -28 -8 -40 -15 -32 -20 17 -11 15 -26 -4 -19 -10
4 -17 -1 -21 -16 -3 -11 -9 -21 -13 -21 -4 0 -10 -9 -13 -21 -5 -20 -6 -20
-31 -3 -22 14 -25 14 -20 1 8 -21 -25 -57 -45 -50 -9 4 -13 3 -9 -2 11 -12
-11 -35 -34 -35 -10 0 -16 -4 -13 -10 3 -5 -1 -10 -9 -10 -9 0 -16 -4 -16 -10
0 -5 -11 -10 -25 -10 -14 0 -25 -4 -25 -10 0 -5 -9 -10 -21 -10 -11 0 -17 -5
-14 -10 4 -6 -7 -13 -24 -16 -17 -4 -31 -10 -31 -15 0 -5 -15 -9 -32 -9 -24 0
-29 -3 -19 -9 10 -7 1 -11 -33 -16 -31 -5 -51 -4 -59 4 -8 8 -6 11 7 11 10 0
14 4 10 12 -5 8 0 9 15 5 13 -3 29 -3 37 0 29 11 12 20 -43 22 -51 2 -56 0
-40 -11 18 -13 17 -14 -5 -25 -13 -6 -32 -14 -43 -18 -14 -4 -16 -8 -6 -14 10
-6 9 -11 -4 -25 -9 -9 -23 -16 -31 -16 -9 0 -14 -7 -12 -17 2 -10 -3 -17 -10
-15 -7 1 -15 -6 -19 -15 -8 -21 -50 -63 -64 -63 -5 0 -9 -4 -9 -10 0 -5 5 -10
12 -10 6 0 1 -11 -11 -24 -17 -18 -31 -23 -59 -21 -20 1 -26 0 -12 -2 34 -6
46 -20 24 -27 -23 -7 -98 -126 -81 -126 8 -1 7 -5 -3 -13 -33 -27 -43 -46 -31
-61 10 -12 8 -17 -9 -26 -12 -6 -19 -18 -16 -25 2 -7 -2 -19 -9 -25 -8 -7 -13
-16 -10 -20 3 -5 -2 -16 -11 -25 -15 -15 -15 -17 5 -22 l22 -6 -22 -11 c-15
-8 -23 -22 -25 -48 -2 -21 1 -38 6 -38 6 0 10 -4 10 -10 0 -5 -7 -10 -15 -10
-23 0 -18 -18 8 -26 21 -7 20 -8 -8 -14 -27 -5 -30 -9 -28 -39 1 -19 7 -37 15
-42 10 -6 9 -11 -7 -23 -11 -9 -16 -16 -12 -16 21 -1 -16 -38 -43 -43 -36 -8
-40 -27 -5 -27 28 0 34 -15 9 -24 -19 -7 -123 4 -129 14 -3 5 -14 6 -24 3 -13
-3 -18 -12 -16 -28 1 -13 -2 -23 -7 -22 -5 1 -11 -17 -13 -39 -2 -23 -8 -50
-13 -60 -23 -45 -32 -71 -34 -99 -1 -32 31 -146 45 -156 4 -3 10 -32 13 -65 3
-32 10 -64 15 -71 6 -6 9 -17 8 -25 -6 -29 14 -109 36 -150 30 -53 77 -149 80
-164 2 -6 10 -27 18 -45 27 -61 28 -71 11 -90 -22 -24 -34 -24 -34 0 0 15 -18
31 -35 31 -11 0 4 -62 19 -79 17 -19 17 -21 3 -21 -10 0 -17 -4 -17 -10 0 -5
6 -10 13 -10 9 0 8 -3 -2 -9 -11 -7 -11 -9 0 -14 12 -5 12 -7 0 -15 -8 -6 -10
-15 -6 -22 5 -8 1 -18 -10 -27 -18 -12 -17 -13 8 -13 32 0 36 -19 7 -27 -15
-4 -19 -11 -15 -24 4 -11 2 -19 -5 -19 -6 0 -10 -15 -10 -32 1 -18 0 -42 -2
-53 -2 -11 2 -19 8 -18 7 1 12 -8 13 -20 6 -152 11 -178 38 -209 8 -9 12 -21
8 -27 -3 -7 0 -8 9 -5 19 7 21 -7 4 -25 -9 -10 -9 -12 -1 -7 6 3 14 2 18 -4 3
-5 15 -10 26 -10 12 0 17 -4 13 -11 -3 -6 -15 -9 -25 -6 -11 3 -19 1 -19 -3 0
-15 51 -49 65 -44 8 4 20 -7 30 -25 8 -17 19 -31 23 -31 17 -1 92 -80 87 -92
-3 -8 8 -33 24 -56 21 -28 25 -39 14 -35 -19 8 -14 -4 29 -58 15 -20 28 -41
28 -46 0 -5 10 -17 21 -27 15 -13 18 -20 10 -25 -10 -7 11 -45 39 -71 3 -3 6
-11 8 -18 1 -7 19 -36 39 -65 20 -28 27 -44 16 -34 -27 23 -48 22 -26 -2 10
-10 27 -30 38 -43 11 -13 28 -27 38 -31 26 -10 21 -30 -5 -21 -21 6 -22 5 -8
-12 8 -10 25 -31 39 -46 28 -32 23 -34 -22 -13 l-32 16 34 -30 c18 -16 30 -34
27 -39 -3 -6 0 -13 6 -15 10 -4 10 -8 -1 -15 -11 -8 -10 -12 5 -21 11 -6 15
-11 10 -11 -5 0 -3 -7 4 -15 11 -13 8 -15 -16 -15 l-29 0 38 -26 c24 -16 37
-32 35 -42 -2 -9 5 -22 17 -29 20 -12 20 -12 0 -13 -17 -1 -16 -3 8 -16 15 -8
27 -17 27 -20 0 -2 -9 0 -20 6 -11 6 -31 8 -45 4 -19 -5 -25 -2 -25 9 0 15
-32 29 -97 42 -38 8 -44 24 -10 26 20 1 20 2 -6 12 -15 6 -27 15 -27 20 0 6
-8 16 -17 24 -17 14 -17 14 0 9 33 -11 16 11 -23 29 -39 18 -57 41 -22 28 11
-4 7 5 -12 25 -17 18 -35 32 -40 32 -6 1 -24 12 -41 26 -20 17 -23 22 -8 15
30 -15 38 -14 23 4 -11 13 -10 14 4 9 10 -4 15 -12 12 -19 -6 -16 21 -28 30
-14 3 6 -4 18 -16 26 -39 27 -145 124 -149 136 -2 7 7 3 20 -9 31 -27 54 -41
45 -26 -3 5 -1 12 6 14 6 2 -5 14 -24 26 -33 20 -66 64 -35 46 6 -4 3 2 -7 14
-20 23 -36 49 -58 92 -7 14 -27 42 -46 64 -19 21 -40 52 -48 70 -7 17 -21 43
-32 58 l-18 27 0 -35 c0 -20 -6 -40 -14 -45 -13 -8 -12 -11 2 -23 22 -16 22
-20 1 -42 -13 -13 -14 -19 -5 -22 6 -2 12 -12 12 -23 0 -11 7 -22 16 -26 9 -3
14 -13 11 -24 -3 -10 1 -23 9 -30 8 -6 14 -17 14 -24 0 -7 9 -15 20 -18 14 -3
19 -13 18 -29 -2 -21 -7 -23 -44 -23 -23 0 -40 3 -37 8 2 4 -2 8 -9 9 -7 0 7
4 32 7 l45 7 -40 17 c-37 17 -43 17 -73 3 -38 -18 -56 -20 -47 -6 3 6 -3 10
-14 10 -17 0 -41 -25 -41 -43 0 -2 21 -2 48 -1 l47 4 -43 -17 c-26 -11 -41
-22 -38 -30 3 -7 -4 -34 -15 -60 -11 -25 -17 -53 -15 -60 3 -8 -1 -24 -9 -37
-8 -12 -12 -26 -8 -29 3 -4 2 -7 -3 -7 -5 0 -9 -17 -8 -37 1 -21 -2 -43 -7
-50 -7 -7 -6 -13 0 -17 6 -4 8 -13 4 -21 -6 -17 5 -19 27 -5 13 9 12 12 -4 25
-11 8 -17 18 -13 21 4 4 12 2 20 -4 7 -6 22 -10 33 -8 10 2 13 1 6 -1 -17 -6
4 -33 25 -33 17 0 73 59 73 77 0 13 7 15 58 17 25 1 27 -2 25 -37 -2 -39 15
-51 24 -17 7 25 18 26 20 3 4 -78 15 -103 43 -96 15 4 18 9 10 18 -14 16 -22
57 -10 50 5 -3 11 -1 14 4 8 13 -23 43 -36 35 -6 -4 -8 -2 -4 4 3 5 -5 24 -19
40 -13 16 -22 32 -18 36 3 3 -9 6 -28 7 -34 0 -34 0 -11 16 21 15 21 16 5 29
-17 13 -17 13 0 14 21 0 22 10 2 36 -8 10 -15 22 -15 27 0 9 37 -12 62 -36 10
-9 26 -16 35 -16 17 1 17 2 1 6 -18 4 -26 23 -10 23 9 0 50 -28 72 -50 12 -12
14 -21 6 -34 -9 -14 -7 -21 8 -30 53 -33 122 -93 119 -103 -5 -13 22 -58 35
-58 4 0 6 -3 5 -7 -4 -12 39 -58 54 -58 8 0 12 -4 8 -9 -3 -5 0 -13 6 -17 8
-4 9 -3 5 4 -11 19 7 14 79 -18 37 -17 73 -30 81 -30 8 0 14 -6 14 -12 0 -12
110 -60 135 -60 6 0 18 -4 27 -9 10 -5 18 -5 20 1 3 11 91 -19 108 -36 11 -11
-17 -11 -115 -1 -38 4 -51 4 -35 -2 14 -4 34 -13 45 -18 25 -13 102 -34 135
-37 30 -3 92 -16 103 -23 14 -8 -27 -32 -55 -33 -15 0 -30 -5 -34 -12 -5 -8
20 -9 102 -4 63 3 103 3 96 -3 -10 -6 -6 -10 15 -15 28 -7 146 -29 213 -41 35
-6 35 -6 10 9 -14 8 -37 15 -51 16 -14 0 -34 9 -44 20 -10 11 -24 20 -30 20
-7 0 -19 7 -26 16 -7 9 -24 20 -36 25 -13 5 -22 14 -21 20 3 10 -145 110 -234
159 -21 11 -38 26 -38 33 0 8 -11 24 -25 37 -13 12 -22 26 -20 31 3 4 0 9 -7
11 -6 2 -13 15 -15 29 -2 13 -10 29 -18 35 -8 6 -15 17 -15 24 0 8 -7 21 -15
31 -14 15 -14 18 -1 32 12 12 13 17 3 21 -9 5 -9 7 0 12 10 4 9 10 -1 27 -8
12 -13 32 -11 45 1 13 -2 25 -7 28 -4 3 -8 16 -8 30 0 14 -6 27 -14 30 -20 8
-27 42 -10 48 21 8 17 23 -8 29 l-22 6 21 23 21 23 -44 34 c-46 35 -55 55 -28
65 23 9 27 8 21 -8 -4 -10 -1 -13 9 -9 20 8 -3 36 -26 30 -8 -2 -22 3 -29 11
-12 13 -12 17 5 29 18 14 18 15 -3 8 -13 -3 -23 -2 -23 2 0 11 69 37 77 30 8
-9 -8 -47 -20 -47 -6 0 -2 -7 10 -15 12 -8 29 -12 38 -8 14 5 16 2 11 -15 -5
-15 -3 -20 8 -18 9 1 19 5 22 9 15 15 24 6 14 -14 -11 -19 -10 -20 9 -9 16 8
21 8 21 -3 0 -7 -6 -19 -12 -26 -9 -9 -2 -8 19 3 36 18 44 19 42 9 -1 -5 -1
-16 0 -26 1 -14 5 -16 18 -8 24 13 71 -53 53 -75 -10 -11 -10 -14 0 -14 9 0 7
-7 -6 -22 -18 -20 -18 -21 -1 -15 10 4 30 7 43 7 21 0 24 4 19 20 -6 18 -2 20
39 20 25 0 46 -3 46 -7 0 -4 -12 -20 -27 -35 -15 -15 -22 -28 -16 -28 6 0 23
16 37 35 15 20 32 32 38 29 6 -4 5 -10 -3 -15 -8 -5 -10 -9 -5 -9 5 0 3 -7 -4
-15 -9 -10 -9 -15 -1 -15 6 0 11 5 11 10 0 6 11 10 25 10 14 0 24 -3 24 -7 -3
-19 2 -33 11 -33 5 0 9 5 7 11 -1 6 4 14 11 16 9 4 11 -3 7 -24 -6 -26 -5 -26
8 -10 14 16 15 16 31 -7 9 -14 16 -30 16 -36 0 -7 8 -9 19 -5 15 4 24 -1 34
-22 8 -15 24 -37 36 -47 28 -26 105 -37 160 -24 39 10 46 9 58 -8 9 -13 16
-15 21 -8 7 12 73 37 129 49 28 6 32 4 27 -10 -5 -13 -2 -15 22 -9 16 4 31 8
33 10 2 2 10 -1 16 -6 7 -6 37 -11 68 -13 46 -2 53 -4 44 -16 -12 -15 -11 -15
51 5 10 3 26 -4 39 -15 14 -13 24 -17 28 -10 4 6 12 8 19 6 6 -2 20 -1 31 3
13 5 24 2 32 -9 9 -12 12 -12 13 -3 0 8 10 12 23 11 12 -1 30 1 39 5 39 14 47
14 52 3 5 -9 7 -9 12 1 3 7 12 19 20 26 8 8 14 19 14 25 0 6 7 11 15 11 8 0
15 -7 15 -16 0 -17 28 -49 36 -41 3 3 0 14 -8 26 -11 18 -10 23 5 38 14 14 17
15 17 3 1 -12 4 -11 14 3 13 16 14 16 20 -9 7 -25 8 -26 26 -9 16 15 22 15 35
5 12 -10 15 -10 16 1 1 8 4 1 8 -15 7 -33 31 -47 32 -19 0 14 2 13 10 -5 5
-13 7 -28 4 -32 -10 -15 16 -55 46 -72 34 -20 44 -22 44 -9 0 19 15 24 16 5 0
-18 1 -18 9 1 6 14 9 15 9 5 1 -16 41 -23 41 -8 0 4 -7 8 -15 8 -27 0 -16 17
15 23 16 4 38 16 47 27 10 11 24 20 31 20 8 0 12 6 9 14 -3 8 2 22 12 32 9 11
20 27 24 36 3 10 11 18 17 18 6 0 8 4 5 10 -7 12 10 46 22 43 4 -2 8 5 8 15 0
10 7 16 18 16 9 -1 17 2 17 7 0 5 7 9 16 9 8 0 12 5 9 10 -5 8 -12 7 -22 -2
-13 -10 -15 -9 -12 6 3 12 14 20 32 22 15 1 25 -2 22 -7 -11 -17 6 -30 21 -15
17 17 7 49 -12 42 -8 -3 -14 -1 -14 3 0 5 7 12 16 15 10 4 14 12 10 22 -9 23
11 54 31 47 10 -4 14 -2 10 4 -9 15 3 44 14 37 5 -3 9 0 9 5 0 6 7 11 15 11 8
0 15 5 15 10 0 6 -5 10 -11 10 -17 0 -2 60 19 76 14 11 19 9 28 -8 10 -18 12
-15 24 26 14 51 27 66 36 42 13 -33 22 -14 13 25 -10 43 -4 64 10 40 11 -17
23 2 15 23 -3 9 -1 16 5 16 6 0 11 -6 11 -12 0 -9 3 -9 9 1 8 13 12 13 27 0
13 -10 12 -5 -4 15 -12 16 -19 32 -16 35 4 3 9 0 11 -6 6 -18 30 -16 37 2 3 8
12 12 21 9 8 -4 15 -1 15 6 0 7 7 10 16 6 11 -4 15 -2 11 7 -5 13 4 16 44 18
12 0 15 8 11 27 -4 22 -2 25 9 15 18 -18 30 -16 23 2 -4 10 0 15 15 15 16 0
21 6 21 28 0 21 2 24 10 12 9 -13 12 -13 24 2 7 10 16 15 19 12 3 -4 12 5 18
19 7 15 16 24 21 20 6 -3 5 4 -1 15 -15 29 -14 37 4 22 13 -11 15 -8 15 15 0
27 1 27 18 12 21 -19 42 -23 24 -5 -17 17 -15 25 9 31 11 3 19 11 18 19 -4 33
1 47 17 41 10 -4 15 -1 14 8 -5 35 -1 42 16 28 15 -12 16 -11 10 9 -4 13 -3
22 3 22 12 0 2 32 -13 42 -8 5 -8 8 0 8 6 0 17 -7 24 -15 7 -8 17 -15 23 -15
5 0 3 8 -6 18 -19 20 -23 37 -7 27 6 -3 10 -2 10 4 0 6 7 8 16 4 13 -5 15 -2
9 17 -6 19 -4 22 10 16 13 -5 16 -2 11 9 -3 9 -2 13 4 10 5 -3 14 4 21 16 l12
23 14 -27 c17 -34 25 -35 17 -3 -9 36 4 66 28 66 15 0 18 5 14 16 -6 15 -4 15
10 3 13 -11 12 -5 -5 29 -12 23 -28 42 -36 42 -8 0 -12 -6 -9 -14 3 -8 -3 -16
-15 -19 -12 -3 -21 -1 -21 5 0 5 -4 7 -9 3 -5 -3 -17 3 -27 12 -9 9 -12 19 -7
20 5 2 8 18 5 36 l-4 32 19 -34 c26 -50 46 -53 38 -7 -8 42 6 48 24 10 6 -15
14 -24 17 -21 3 3 -2 19 -12 36 -15 26 -16 33 -5 43 11 10 12 10 7 1 -9 -15
12 -17 34 -3 13 8 12 10 -2 10 -10 0 -18 4 -18 9 0 5 -3 17 -7 27 -5 13 -3 15
7 9 10 -6 12 -4 7 11 -6 16 -4 15 12 -3 25 -29 26 -29 25 7 -1 30 -14 56 -14
29 0 -8 -8 -4 -20 11 -25 33 -26 48 0 25 18 -16 20 -16 26 -1 3 9 1 24 -6 34
-7 9 2 2 19 -16 17 -18 29 -37 26 -42 -3 -6 1 -7 9 -4 9 3 17 16 17 28 1 11 3
36 5 55 3 27 -2 41 -23 63 -15 15 -22 28 -15 28 6 0 14 -4 17 -10 12 -20 26
-10 15 10 -6 11 -19 20 -30 20 -20 0 -36 17 -25 28 3 4 20 -1 36 -10 29 -17
29 -17 18 4 -18 33 -15 96 5 119 16 19 16 24 -7 92 -30 87 -40 140 -27 132 14
-8 -18 63 -46 104 -13 20 -24 44 -24 54 0 19 -27 67 -45 79 -5 4 -10 13 -10
20 -1 7 -7 24 -15 38 -18 31 -20 43 -21 105 0 28 -8 73 -19 100 -10 28 -21 63
-24 78 -4 17 -16 31 -31 37 -14 5 -26 13 -26 17 -7 45 -6 63 1 58 15 -9 21 28
7 44 -8 9 -13 21 -10 27 2 7 -8 21 -22 32 -19 15 -21 21 -11 25 12 5 11 13 -6
46 -11 23 -25 41 -30 41 -7 0 -7 -5 -1 -12 10 -14 10 -55 -1 -65 -3 -4 4 -17
16 -30 13 -14 17 -23 9 -23 -11 0 -11 -3 -1 -15 11 -13 9 -15 -11 -11 -13 3
-27 5 -31 5 -5 1 -8 6 -8 12 0 8 5 8 15 -1 8 -7 15 -8 15 -3 0 6 -11 19 -25
29 -14 10 -25 22 -25 26 0 11 -48 79 -68 95 -16 14 -16 14 1 9 9 -3 17 -1 17
4 0 5 -10 12 -21 15 -17 6 -19 9 -8 17 11 7 10 12 -8 25 -13 8 -23 21 -23 27
0 6 -16 20 -35 30 -25 14 -32 22 -23 28 9 5 3 11 -19 20 -18 7 -33 16 -33 20
0 9 -41 27 -75 34 -82 15 -131 30 -138 41 -6 10 -19 12 -43 7 -30 -5 -40 -2
-64 21 -16 15 -33 24 -39 21 -6 -4 -11 0 -11 8 0 10 -15 17 -45 22 -25 3 -45
11 -45 16 0 5 -9 6 -20 3 -29 -9 -25 10 8 34 20 15 23 20 10 21 -9 0 -20 -5
-23 -10 -4 -6 -21 -8 -40 -4 -20 3 -35 1 -40 -5 -9 -15 -25 -4 -19 13 9 23
-71 32 -101 12 -28 -18 -34 -56 -9 -56 10 0 14 -6 11 -15 -4 -8 4 -22 18 -34
14 -10 25 -26 25 -35 0 -9 8 -28 17 -42 14 -21 14 -29 4 -46 -7 -11 -10 -22
-7 -25 3 -3 1 -14 -5 -24 -9 -17 -7 -18 16 -9 23 9 25 7 25 -15 0 -14 -9 -34
-21 -46 -13 -13 -19 -29 -16 -42 4 -18 -9 -73 -13 -57 -7 27 -8 75 -2 84 14
18 22 46 13 46 -10 0 -34 -55 -34 -76 0 -8 -4 -14 -9 -14 -4 0 -8 9 -8 19 0
34 -19 33 -34 -1 l-14 -33 -1 48 c-1 34 -5 47 -13 44 -9 -2 -12 -21 -10 -53 2
-40 0 -46 -9 -31 -6 10 -9 21 -6 24 3 2 1 18 -3 34 -5 17 -5 31 1 34 12 8 12
35 -1 35 -5 0 -10 -9 -10 -19 0 -11 -6 -22 -12 -25 -10 -5 -10 -7 0 -12 6 -3
12 -15 12 -27 0 -13 -3 -17 -8 -11 -11 16 -44 14 -38 -3 3 -8 2 -12 -3 -9 -5
3 -7 30 -5 60 2 30 -1 58 -6 61 -6 3 -10 -1 -10 -9 0 -9 -4 -16 -10 -16 -5 0
-10 -10 -10 -21 0 -20 -1 -21 -25 -5 -13 9 -31 16 -38 16 -8 0 -27 18 -42 40
-15 22 -31 37 -35 35 -11 -7 -40 23 -40 41 0 8 -4 13 -9 10 -4 -3 -7 6 -5 21
1 14 7 29 12 32 5 3 8 23 6 44 -3 33 -1 37 11 27 23 -19 19 8 -6 49 -14 23
-23 30 -28 22 -17 -26 -36 22 -39 98 -4 81 12 158 63 301 25 69 26 83 21 175
-4 63 -2 113 4 132 12 32 45 49 58 30 4 -7 24 -21 45 -31 20 -11 37 -23 37
-28 0 -4 9 -8 19 -8 17 0 36 -25 33 -42 -1 -5 9 -8 23 -8 16 0 25 6 25 15 0 9
-11 20 -25 25 -14 5 -25 14 -25 20 0 5 -17 24 -37 42 -21 18 -56 52 -79 75
l-41 43 -11 -26z m-1154 -439 c-3 -3 -13 -2 -22 1 -14 5 -15 9 -4 15 13 8 36
-6 26 -16z m25 -143 l22 -23 -46 3 c-26 2 -45 7 -42 11 3 4 0 14 -7 21 -19 24
48 12 73 -12z m-390 -179 c-7 -2 -19 -2 -25 0 -7 3 -2 5 12 5 14 0 19 -2 13
-5z m97 -14 c0 -5 -4 -9 -10 -9 -5 0 -10 7 -10 16 0 8 5 12 10 9 6 -3 10 -10
10 -16z m-96 -25 c3 -8 2 -12 -4 -9 -6 3 -10 10 -10 16 0 14 7 11 14 -7z m-44
-4 c0 -5 -7 -10 -15 -10 -8 0 -15 5 -15 10 0 6 7 10 15 10 8 0 15 -4 15 -10z
m33 -27 c-7 -2 -19 -2 -25 0 -7 3 -2 5 12 5 14 0 19 -2 13 -5z m467 -192 c0
-11 -4 -22 -9 -25 -5 -3 -8 5 -7 19 1 29 16 34 16 6z m66 -159 c-10 -10 -29
15 -21 28 6 9 10 8 17 -4 6 -10 7 -20 4 -24z m284 -29 c0 -9 -6 -13 -14 -10
-16 6 -46 -22 -46 -43 0 -7 -3 -11 -6 -7 -8 8 18 77 27 71 4 -2 10 0 14 6 9
14 25 3 25 -17z m905 -33 c3 -5 1 -10 -4 -10 -6 0 -11 5 -11 10 0 6 2 10 4 10
3 0 8 -4 11 -10z m125 -21 c0 -10 -4 -19 -9 -19 -12 0 -23 29 -15 41 8 14 24
0 24 -22z m-790 17 c0 -3 -4 -8 -10 -11 -5 -3 -10 -1 -10 4 0 6 5 11 10 11 6
0 10 -2 10 -4z m-140 -25 c0 -6 -4 -13 -10 -16 -5 -3 -10 1 -10 9 0 9 5 16 10
16 6 0 10 -4 10 -9z m-76 -22 c-6 -11 -24 -2 -24 11 0 5 7 7 15 4 8 -4 12 -10
9 -15z m411 1 c3 -5 1 -10 -4 -10 -6 0 -11 5 -11 10 0 6 2 10 4 10 3 0 8 -4
11 -10z m135 -80 c0 -5 -2 -10 -4 -10 -3 0 -8 5 -11 10 -3 6 -1 10 4 10 6 0
11 -4 11 -10z m170 -6 c0 -2 -7 -4 -15 -4 -8 0 -15 4 -15 10 0 5 7 7 15 4 8
-4 15 -8 15 -10z m-1409 -20 c13 -35 4 -60 -23 -68 -50 -13 -66 48 -20 76 34
22 31 23 43 -8z m1596 -11 c-3 -3 -11 -2 -17 2 -9 6 -9 10 1 16 14 8 27 -7 16
-18z m-137 13 c0 -3 -4 -8 -10 -11 -5 -3 -10 -1 -10 4 0 6 5 11 10 11 6 0 10
-2 10 -4z m-1410 -34 c0 -15 -2 -15 -10 -2 -13 20 -13 33 0 25 6 -3 10 -14 10
-23z m2232 -95 c30 -23 29 -28 -15 -66 l-27 -25 -29 28 c-32 31 -31 58 2 74
32 15 39 14 69 -11z m-1922 -108 c0 -6 -4 -7 -10 -4 -5 3 -10 11 -10 16 0 6 5
7 10 4 6 -3 10 -11 10 -16z m2132 -49 c-2 -22 -7 -40 -11 -40 -4 0 -5 18 -3
40 2 22 7 40 11 40 4 0 5 -18 3 -40z m-2163 -23 c-2 -1 -12 -9 -21 -16 -15
-12 -18 -11 -18 3 0 10 8 16 22 16 12 0 19 -1 17 -3z m-189 -132 c-7 -9 -15
-13 -19 -10 -3 3 1 10 9 15 21 14 24 12 10 -5z m2643 -100 c32 -53 47 -87 44
-102 -3 -15 1 -23 10 -23 10 0 12 -6 8 -20 -4 -11 -2 -20 4 -20 6 0 11 -11 11
-24 0 -13 6 -26 13 -29 9 -3 9 -7 0 -17 -7 -8 -8 -22 -3 -41 5 -16 5 -31 0
-34 -4 -3 -11 -17 -15 -32 -3 -15 -12 -34 -18 -41 -6 -7 -12 -24 -13 -38 -2
-18 2 -24 16 -24 14 0 18 -5 13 -16 -3 -9 -8 -12 -12 -5 -4 6 -12 7 -21 1 -8
-6 -25 -10 -37 -10 -12 0 -26 -7 -31 -15 -7 -13 -13 -14 -38 -4 -16 6 -41 12
-55 13 -20 1 -25 -3 -21 -16 3 -14 -2 -18 -26 -18 -17 0 -35 6 -39 13 -6 9
-63 19 -63 11 0 -1 16 -18 35 -37 39 -39 42 -47 20 -47 -8 0 -15 7 -15 15 0 8
-9 15 -20 15 -11 0 -20 4 -20 8 0 8 -49 32 -91 45 -17 6 -19 41 -2 58 14 14
53 -5 53 -25 0 -8 6 -16 14 -19 19 -7 8 34 -13 50 -13 10 -12 11 9 6 29 -7 70
-33 52 -33 -20 0 -14 -17 8 -23 11 -3 20 -2 20 3 0 4 11 5 24 3 15 -3 25 1 29
11 4 9 1 16 -6 16 -7 0 -13 9 -14 21 -2 17 2 20 19 15 21 -5 68 15 96 42 7 6
20 12 28 12 8 0 14 4 14 9 0 9 -49 2 -65 -9 -21 -16 -140 -41 -143 -30 -2 5
-8 10 -13 10 -6 0 -7 -4 -4 -10 10 -16 -11 -12 -25 5 -7 9 -39 23 -72 32 -53
15 -77 33 -45 33 6 0 21 7 32 16 17 13 18 16 5 24 -19 12 -43 13 -36 1 3 -5
-4 -11 -16 -14 -25 -7 -44 13 -25 25 8 5 4 8 -10 8 -12 0 -25 5 -29 12 -5 8 5
9 34 5 60 -7 52 6 -15 27 -45 15 -53 20 -40 28 10 5 22 6 27 3 18 -11 32 5 19
21 -7 8 -7 14 -1 14 5 0 12 -7 16 -15 6 -17 36 -21 36 -5 0 6 15 8 36 6 44 -6
64 1 57 20 -5 15 -4 16 39 18 15 1 25 -1 22 -5 -8 -14 17 -21 32 -8 8 6 17 9
21 6 3 -4 12 -2 20 4 10 9 10 15 2 25 -7 9 -7 18 0 33 6 11 8 27 5 35 -5 14
22 68 51 103 5 7 23 12 40 10 25 -2 36 -13 78 -82z m-748 36 c4 -10 -1 -12
-20 -9 -13 3 -26 0 -29 -6 -2 -6 -4 -1 -3 10 1 16 7 21 24 20 12 0 25 -7 28
-15z m115 -25 c0 -3 -4 -8 -10 -11 -5 -3 -10 -1 -10 4 0 6 5 11 10 11 6 0 10
-2 10 -4z m-95 -72 c43 -27 41 -27 -17 -4 -21 8 -38 18 -38 22 0 13 13 9 55
-18z m75 -14 c-19 -13 -30 -13 -30 0 0 6 10 10 23 10 18 0 19 -2 7 -10z m150
-6 c0 -8 -5 -12 -10 -9 -6 4 -8 11 -5 16 9 14 15 11 15 -7z m-170 -23 c0 -6
-4 -13 -10 -16 -5 -3 -10 1 -10 9 0 9 5 16 10 16 6 0 10 -4 10 -9z m50 -11 c0
-5 -2 -10 -4 -10 -3 0 -8 5 -11 10 -3 6 -1 10 4 10 6 0 11 -4 11 -10z m-550
-30 c0 -5 -2 -10 -4 -10 -3 0 -8 5 -11 10 -3 6 -1 10 4 10 6 0 11 -4 11 -10z
m365 0 c3 -5 1 -10 -4 -10 -6 0 -11 5 -11 10 0 6 2 10 4 10 3 0 8 -4 11 -10z
m104 -16 c3 -16 1 -17 -13 -5 -19 16 -21 34 -3 29 6 -3 14 -13 16 -24z m-1198
3 c-1 -12 -15 -9 -19 4 -3 6 1 10 8 8 6 -3 11 -8 11 -12z m1319 -7 c0 -5 -4
-10 -10 -10 -5 0 -10 5 -10 10 0 6 5 10 10 10 6 0 10 -4 10 -10z m-1310 -66
c0 -11 -8 -9 -30 7 -24 18 -27 25 -18 37 10 12 15 11 30 -8 10 -12 18 -29 18
-36z m1200 21 c7 -8 8 -15 2 -15 -5 0 -15 7 -22 15 -7 8 -8 15 -2 15 5 0 15
-7 22 -15z m60 -36 c6 -10 7 -19 3 -19 -4 0 -13 11 -20 25 -13 29 2 24 17 -6z
m-282 9 c-6 -18 -28 -21 -28 -4 0 9 7 16 16 16 9 0 14 -5 12 -12z m352 -41 c0
-6 -9 -1 -20 11 -11 12 -20 24 -20 28 0 4 9 -1 20 -11 11 -10 20 -23 20 -28z
m-260 13 c0 -5 -4 -10 -9 -10 -6 0 -13 5 -16 10 -3 6 1 10 9 10 9 0 16 -4 16
-10z m200 -40 c0 -5 -4 -10 -10 -10 -5 0 -10 5 -10 10 0 6 5 10 10 10 6 0 10
-4 10 -10z m160 -40 c0 -3 -4 -12 -10 -20 -7 -11 -11 -9 -19 13 -15 38 -14 39
9 25 11 -7 20 -15 20 -18z m40 -32 c0 -5 -4 -8 -10 -8 -5 0 -10 10 -10 23 0
18 2 19 10 7 5 -8 10 -18 10 -22z m-2150 -7 c0 -6 -9 -9 -20 -8 -11 1 -20 5
-20 9 0 4 9 8 20 8 11 0 20 -4 20 -9z m1810 -1 c0 -5 -4 -10 -10 -10 -5 0 -10
5 -10 10 0 6 5 10 10 10 6 0 10 -4 10 -10z m366 -89 c-4 -6 -13 -11 -19 -10
-9 0 -9 2 0 5 7 3 9 13 6 22 -5 13 -3 14 7 5 7 -6 9 -16 6 -22z m-2071 -11 c8
-13 -5 -13 -25 0 -13 8 -13 10 2 10 9 0 20 -4 23 -10z m2515 -20 c-18 -12 -54
-13 -64 -3 -11 11 57 32 69 21 6 -6 5 -12 -5 -18z m-385 -70 c0 -17 -3 -30 -6
-30 -10 0 -20 31 -13 41 3 5 -5 24 -17 42 l-22 32 29 -28 c19 -18 29 -37 29
-57z m-87 54 c29 -14 43 -34 25 -34 -10 0 -70 49 -62 50 3 0 20 -7 37 -16z
m542 12 c0 -3 -4 -8 -10 -11 -5 -3 -10 -1 -10 4 0 6 5 11 10 11 6 0 10 -2 10
-4z m-295 -26 c3 -5 1 -10 -4 -10 -6 0 -11 5 -11 10 0 6 2 10 4 10 3 0 8 -4
11 -10z m234 1 c7 -5 9 -11 5 -14 -13 -8 -64 4 -64 14 0 11 41 11 59 0z m101
-21 c0 -5 -9 -10 -21 -10 -11 0 -17 5 -14 10 3 6 13 10 21 10 8 0 14 -4 14
-10z m-2692 -58 c-13 -49 -28 -64 -28 -28 0 15 -4 25 -10 21 -16 -10 -12 18 6
43 12 17 19 20 29 12 10 -8 11 -20 3 -48z m2278 31 c-7 -7 -26 7 -26 19 0 6 6
6 15 -2 9 -7 13 -15 11 -17z m-2376 7 c0 -5 -4 -10 -10 -10 -5 0 -10 5 -10 10
0 6 5 10 10 10 6 0 10 -4 10 -10z m757 -12 c-3 -8 -6 -5 -6 6 -1 11 2 17 5 13
3 -3 4 -12 1 -19z m2040 -4 c2 -5 -18 -10 -43 -11 -47 -2 -50 12 -4 20 31 5
43 3 47 -9z m-333 0 c22 -9 10 -24 -19 -24 -18 0 -23 4 -19 15 7 16 14 18 38
9z m-654 -30 c0 -2 -9 0 -20 6 -11 6 -20 13 -20 16 0 2 9 0 20 -6 11 -6 20
-13 20 -16z m544 5 c-6 -11 -24 -2 -24 11 0 5 7 7 15 4 8 -4 12 -10 9 -15z
m366 -13 c0 -9 -30 -14 -35 -6 -4 6 3 10 14 10 12 0 21 -2 21 -4z m129 -37 c3
-11 -1 -10 -19 2 -13 9 -26 22 -29 30 -3 11 1 10 19 -2 13 -9 26 -22 29 -30z
m-1379 3 c0 -15 -2 -15 -10 -2 -13 20 -13 33 0 25 6 -3 10 -14 10 -23z m1107
12 c-3 -3 -12 -4 -19 -1 -8 3 -5 6 6 6 11 1 17 -2 13 -5z m58 -4 c-27 -12 -43
-12 -25 0 8 5 22 9 30 9 10 0 8 -3 -5 -9z m203 -47 c2 -1 0 -9 -5 -18 -8 -13
-13 -10 -28 20 -11 19 -23 35 -27 35 -5 0 -8 5 -8 12 0 6 15 -1 32 -18 18 -16
34 -30 36 -31z m-2618 37 c0 -5 -5 -10 -11 -10 -5 0 -7 5 -4 10 3 6 8 10 11
10 2 0 4 -4 4 -10z m1287 -42 c-3 -8 -6 -5 -6 6 -1 11 2 17 5 13 3 -3 4 -12 1
-19z m1058 2 c3 -5 2 -10 -4 -10 -5 0 -13 5 -16 10 -3 6 -2 10 4 10 5 0 13 -4
16 -10z m170 0 c3 -6 -1 -7 -9 -4 -18 7 -21 14 -7 14 6 0 13 -4 16 -10z
m-2545 -10 c0 -5 -2 -10 -4 -10 -3 0 -8 5 -11 10 -3 6 -1 10 4 10 6 0 11 -4
11 -10z m450 -26 c0 -8 -4 -14 -10 -14 -5 0 -10 9 -10 21 0 11 5 17 10 14 6
-3 10 -13 10 -21z m704 -4 c-6 -6 -10 -3 -10 10 0 13 4 16 10 10 7 -7 7 -13 0
-20z m1426 20 c0 -5 -2 -10 -4 -10 -3 0 -8 5 -11 10 -3 6 -1 10 4 10 6 0 11
-4 11 -10z m-2760 -24 c0 -3 -4 -8 -10 -11 -5 -3 -10 -1 -10 4 0 6 5 11 10 11
6 0 10 -2 10 -4z m1517 -58 c-3 -7 -5 -2 -5 12 0 14 2 19 5 13 2 -7 2 -19 0
-25z m468 22 c3 -5 2 -10 -4 -10 -5 0 -13 5 -16 10 -3 6 -2 10 4 10 5 0 13 -4
16 -10z m485 -21 c15 -28 5 -23 -15 7 -9 15 -12 23 -6 20 6 -4 16 -16 21 -27z
m-2378 -37 c-21 -6 -25 4 -10 27 l13 21 6 -22 c3 -15 0 -24 -9 -26z m1292 23
c-4 -8 -11 -12 -16 -9 -6 4 -5 10 3 15 19 12 19 11 13 -6z m1336 -6 c0 -6 -4
-7 -10 -4 -5 3 -10 11 -10 16 0 6 5 7 10 4 6 -3 10 -11 10 -16z m-264 -14 c7
-6 9 -17 6 -22 -5 -7 -20 0 -40 17 l-33 27 28 -5 c15 -3 33 -11 39 -17z m-79
-1 c-3 -3 -12 -4 -19 -1 -8 3 -5 6 6 6 11 1 17 -2 13 -5z m-2345 -31 c-3 -16
-7 -22 -10 -15 -4 13 4 42 11 42 2 0 2 -12 -1 -27z m1308 -24 c0 -4 -9 -5 -20
-2 -11 3 -20 12 -20 19 0 12 4 12 20 2 11 -7 20 -16 20 -19z m660 16 c11 -13
10 -14 -4 -9 -9 3 -16 10 -16 15 0 13 6 11 20 -6z m412 -13 c11 -13 8 -12 -19
2 -18 9 -33 18 -33 20 0 9 41 -8 52 -22z m-48 -57 c18 -28 6 -35 -15 -9 -7 9
-22 20 -34 24 -18 8 -17 9 6 9 18 1 32 -7 43 -24z m-2024 5 c0 -5 -2 -10 -4
-10 -3 0 -8 5 -11 10 -3 6 -1 10 4 10 6 0 11 -4 11 -10z m1105 -39 c3 -5 1
-12 -5 -16 -5 -3 -10 1 -10 9 0 18 6 21 15 7z m-827 -32 c27 -10 29 -36 3 -41
-18 -3 -18 -5 5 -33 l23 -30 46 45 46 45 82 0 c105 0 197 -11 210 -24 6 -6 18
-11 26 -11 24 0 166 -74 211 -110 40 -32 66 -86 56 -118 -10 -29 -45 -62 -66
-62 -11 0 -19 3 -18 8 1 4 -7 22 -18 41 -48 86 -135 156 -229 184 -167 50
-173 51 -217 38 -48 -15 -70 -34 -62 -54 3 -9 -3 -16 -16 -20 -12 -3 -19 -10
-15 -16 10 -18 -37 -13 -70 7 -56 34 -116 52 -218 67 -150 21 -171 25 -186 40
-26 25 33 38 184 42 80 2 141 8 143 13 4 10 35 5 80 -11z m1582 -9 c-20 -13
-33 -13 -25 0 3 6 14 10 23 10 15 0 15 -2 2 -10z m-800 -31 c0 -6 -4 -7 -10
-4 -5 3 -10 11 -10 16 0 6 5 7 10 4 6 -3 10 -11 10 -16z m-42 -20 c-3 -8 -7
-3 -11 10 -4 17 -3 21 5 13 5 -5 8 -16 6 -23z m202 1 c0 -5 -2 -10 -4 -10 -3
0 -8 5 -11 10 -3 6 -1 10 4 10 6 0 11 -4 11 -10z m195 -18 c-7 -8 -35 7 -35
18 0 6 7 6 20 -2 10 -7 17 -14 15 -16z m245 18 c-20 -13 -50 -13 -50 0 0 6 15
10 33 10 24 0 28 -3 17 -10z m250 0 c0 -5 -4 -10 -10 -10 -5 0 -10 5 -10 10 0
6 5 10 10 10 6 0 10 -4 10 -10z m-49 -28 c-7 -2 -18 1 -23 6 -8 8 -4 9 13 5
13 -4 18 -8 10 -11z m-801 -7 c6 -8 9 -19 5 -24 -3 -6 -1 -20 5 -31 18 -33 3
-23 -19 14 -22 35 -27 56 -12 56 5 0 14 -7 21 -15z m-1270 -30 c0 -8 -4 -15
-10 -15 -5 0 -10 7 -10 15 0 8 5 15 10 15 6 0 10 -7 10 -15z m1541 -12 c13
-16 12 -17 -3 -4 -17 13 -22 21 -14 21 2 0 10 -8 17 -17z m109 -9 c0 -8 -6
-11 -15 -8 -8 4 -15 12 -15 20 0 8 6 11 15 8 8 -4 15 -12 15 -20z m287 0 c-3
-3 -12 -4 -19 -1 -8 3 -5 6 6 6 11 1 17 -2 13 -5z m100 -16 c-3 -8 -6 -5 -6 6
-1 11 2 17 5 13 3 -3 4 -12 1 -19z m-2047 -40 c0 -46 -2 -51 -15 -38 -10 11
-13 26 -8 53 8 54 23 45 23 -15z m1715 42 c8 -13 -5 -13 -25 0 -13 8 -13 10 2
10 9 0 20 -4 23 -10z m644 -44 c-9 -8 -10 -7 -5 7 3 10 7 26 7 35 1 9 4 6 6
-7 3 -13 -1 -28 -8 -35z m-790 -8 c2 -18 -19 -5 -41 25 l-23 32 32 -25 c18
-14 32 -28 32 -32z m565 -14 c-6 -23 -8 -24 -16 -10 -6 10 -7 29 -3 44 6 23 8
24 16 10 5 -10 7 -29 3 -44z m-1294 26 c0 -5 -11 -12 -25 -16 -33 -8 -65 -49
-58 -74 6 -23 16 -25 43 -8 26 17 51 2 63 -38 21 -65 48 -70 98 -18 47 49 63
56 93 42 31 -13 31 -20 6 -75 -14 -32 -25 -43 -42 -43 -13 -1 -67 -3 -121 -5
-55 -3 -103 -3 -108 0 -8 5 -73 10 -229 16 -30 1 -65 -1 -76 -5 -28 -9 -74 9
-74 29 0 20 -9 19 -32 -2 -24 -22 -52 -7 -56 30 -5 37 10 58 51 72 32 11 36
10 40 -7 5 -16 9 -18 27 -8 11 6 31 8 43 4 12 -4 39 -6 59 -5 20 1 39 -3 42
-8 4 -6 17 -4 34 5 15 7 41 14 59 14 17 0 35 5 39 12 5 7 3 8 -5 3 -7 -4 -5 5
5 20 10 16 41 38 69 51 60 27 55 26 55 14z m1450 0 c0 -5 -4 -10 -10 -10 -5 0
-10 5 -10 10 0 6 5 10 10 10 6 0 10 -4 10 -10z m-2260 -10 c0 -5 -5 -10 -11
-10 -5 0 -7 5 -4 10 3 6 8 10 11 10 2 0 4 -4 4 -10z m40 1 c0 -5 -7 -14 -15
-21 -13 -10 -15 -9 -15 9 0 12 6 21 15 21 8 0 15 -4 15 -9z m2010 -53 c-11
-12 -23 -18 -27 -15 -8 9 29 46 39 40 4 -2 -1 -14 -12 -25z m-1892 -15 c81
-87 86 -133 14 -133 -48 0 -57 7 -81 60 -47 104 -5 149 67 73z m1585 -5 c-3
-6 -10 -5 -16 1 -6 6 -19 11 -29 11 -10 0 -18 4 -18 9 0 5 15 5 35 -1 19 -6
32 -15 28 -20z m-1755 -25 c2 -1 0 -9 -5 -17 -8 -15 -11 -15 -28 0 -11 8 -14
13 -7 9 6 -3 12 -1 12 4 0 6 -7 11 -15 11 -9 0 -12 6 -8 15 5 14 8 14 27 -2
11 -10 23 -19 24 -20z m2137 17 c3 -5 1 -10 -6 -10 -8 0 -8 -4 1 -15 16 -19 1
-19 -25 1 -17 13 -18 16 -5 24 19 12 27 12 35 0z m192 -12 c-3 -8 -6 -5 -6 6
-1 11 2 17 5 13 3 -3 4 -12 1 -19z m-697 -42 c0 -3 -4 -8 -10 -11 -5 -3 -10
-1 -10 4 0 6 5 11 10 11 6 0 10 -2 10 -4z m200 -6 c0 -5 -4 -10 -10 -10 -5 0
-10 5 -10 10 0 6 5 10 10 10 6 0 10 -4 10 -10z m-97 -27 c6 -30 -7 -53 -29
-53 -16 0 -19 26 -4 35 6 3 10 15 10 26 0 29 17 23 23 -8z m-493 -133 c0 -5
-4 -10 -10 -10 -5 0 -10 5 -10 10 0 6 5 10 10 10 6 0 10 -4 10 -10z m-450 -30
c11 -11 15 -20 9 -20 -6 0 -8 -9 -4 -20 7 -23 -1 -26 -19 -7 -17 17 -29 67
-16 67 5 0 19 -9 30 -20z m80 10 c0 -5 -4 -10 -9 -10 -6 0 -13 5 -16 10 -3 6
1 10 9 10 9 0 16 -4 16 -10z m-170 -27 c0 -29 -2 -29 -19 5 -10 18 -9 22 4 22
10 0 15 -9 15 -27z m1070 -8 c0 -5 -5 -3 -10 5 -5 8 -10 20 -10 25 0 6 5 3 10
-5 5 -8 10 -19 10 -25z m-60 -47 c0 -15 -4 -17 -17 -9 -22 11 -55 66 -46 75
10 10 63 -45 63 -66z m-2754 35 c-8 -8 -36 5 -36 17 0 7 6 7 21 0 11 -7 18
-14 15 -17z m2609 7 c5 8 13 6 26 -6 17 -16 19 -16 19 -1 0 10 4 17 9 17 12 0
41 -46 41 -65 0 -12 -5 -12 -32 5 -17 10 -35 17 -39 14 -4 -2 -10 0 -14 6 -9
15 -28 12 -19 -2 4 -7 -2 -4 -14 6 -12 11 -22 26 -22 34 0 13 3 12 19 -2 13
-12 21 -14 26 -6z m-1432 -20 c5 -18 1 -21 -21 -18 -31 4 -42 34 -15 40 24 6
30 2 36 -22z m797 20 c0 -5 -2 -10 -4 -10 -3 0 -8 5 -11 10 -3 6 -1 10 4 10 6
0 11 -4 11 -10z m530 0 c0 -5 -2 -10 -4 -10 -3 0 -8 5 -11 10 -3 6 -1 10 4 10
6 0 11 -4 11 -10z m475 -10 c3 -6 -1 -7 -9 -4 -18 7 -21 14 -7 14 6 0 13 -4
16 -10z m-885 -21 c11 -19 10 -20 -9 -10 -27 15 -36 31 -17 31 8 0 20 -9 26
-21z m470 -11 c0 -12 -6 -9 -26 13 -19 22 -19 22 4 8 12 -8 22 -17 22 -21z
m-650 12 c0 -5 -4 -10 -10 -10 -5 0 -10 5 -10 10 0 6 5 10 10 10 6 0 10 -4 10
-10z m573 -9 c4 -1 7 -6 7 -12 0 -6 -9 -8 -20 -4 -11 3 -20 2 -20 -3 0 -6 -12
-15 -27 -21 -27 -11 -6 -8 35 4 10 4 22 -2 30 -15 11 -18 10 -20 -8 -20 -11 0
-20 -4 -20 -9 0 -5 -10 -11 -22 -13 -20 -3 -18 -6 15 -20 38 -18 52 -34 18
-23 -16 5 -18 2 -14 -14 3 -11 11 -22 19 -25 8 -3 14 -11 14 -17 0 -8 -4 -8
-15 1 -25 21 -36 0 -12 -23 12 -12 18 -19 13 -14 -16 12 -48 8 -40 -5 4 -7 3
-8 -4 -4 -6 4 -9 13 -6 20 3 8 1 17 -5 20 -6 4 -8 14 -5 24 5 13 3 14 -4 4 -7
-10 -14 -5 -31 23 -11 20 -16 33 -10 29 8 -4 9 4 4 27 -4 19 -14 38 -21 42
-15 8 -20 47 -6 47 4 0 13 -5 20 -12 8 -8 12 -9 12 -1 0 17 44 23 103 14z
m431 -10 c10 -10 14 -21 9 -24 -4 -3 -16 6 -26 19 -21 28 -8 32 17 5z m-649
-57 c22 -20 35 -33 29 -30 -7 3 -15 -2 -18 -11 -6 -15 -9 -15 -16 -3 -5 8 -6
18 -3 23 3 5 -7 20 -23 33 -16 13 -24 23 -19 23 6 0 28 -16 50 -35z m-975 17
c0 -5 -7 -12 -16 -15 -14 -5 -15 -4 -4 9 14 17 20 19 20 6z m888 -20 l33 -29
-40 11 c-29 8 -41 17 -41 29 0 24 9 22 48 -11z m-1043 -11 c-3 -5 -11 -10 -16
-10 -6 0 -7 5 -4 10 3 6 11 10 16 10 6 0 7 -4 4 -10z m932 -10 c7 -24 23 -26
23 -3 0 13 7 9 29 -15 34 -37 47 -41 31 -11 -11 19 -9 20 42 17 48 -4 54 -7
70 -37 17 -35 35 -56 26 -31 -4 8 -9 24 -13 35 -7 20 -6 20 9 1 14 -17 16 -18
16 -3 0 23 17 22 30 -2 14 -28 13 -30 -12 -26 -22 4 -22 3 5 -20 28 -25 41
-59 13 -36 -20 16 -25 -2 -18 -66 3 -38 1 -53 -7 -53 -9 0 -12 17 -9 59 3 52
1 58 -13 51 -10 -6 -21 -4 -29 3 -12 10 -12 9 -1 -6 20 -25 30 -91 17 -105
-42 -45 -50 -52 -57 -41 -4 8 -9 5 -13 -8 -5 -15 -15 -20 -42 -19 -19 1 -39 7
-43 15 -7 11 -10 10 -15 -6 -4 -11 -18 -26 -31 -33 -14 -7 -25 -17 -25 -22 0
-4 -13 -8 -30 -8 -16 0 -30 5 -30 10 0 6 -11 3 -25 -6 -14 -9 -28 -14 -32 -10
-3 3 -13 1 -20 -6 -11 -9 -16 -9 -23 3 -8 12 -14 11 -40 -4 -16 -10 -35 -15
-40 -12 -6 4 -19 4 -28 0 -23 -10 -65 -10 -80 -1 -7 4 -12 2 -12 -4 0 -8 -6
-7 -22 1 -11 6 -40 13 -62 15 -23 2 -60 5 -84 8 -23 2 -51 11 -61 20 -13 11
-20 13 -28 5 -13 -13 -91 -4 -135 15 -10 5 -24 6 -32 3 -7 -3 -19 0 -25 6 -8
8 -11 8 -11 -1 0 -7 -11 -5 -30 6 -16 9 -30 21 -30 25 0 5 -5 5 -10 2 -21 -13
-21 26 -1 65 24 46 25 50 12 50 -5 0 -15 -16 -22 -35 -7 -19 -17 -35 -22 -35
-4 0 -5 5 -2 10 3 6 1 10 -4 10 -6 0 -11 -4 -11 -10 0 -5 -4 -10 -10 -10 -6 0
-6 9 0 26 13 34 13 37 -6 30 -11 -4 -9 3 8 27 12 17 29 39 36 47 13 12 14 11
7 -9 -6 -18 -4 -22 6 -15 23 14 41 13 35 -2 -7 -19 14 -18 42 2 12 8 22 10 22
5 0 -15 27 -14 33 2 3 6 6 -4 8 -23 1 -25 3 -28 6 -12 4 22 23 32 23 12 0 -5
5 -10 10 -10 6 0 10 6 10 14 0 21 19 30 34 16 8 -6 25 -9 39 -6 15 2 28 -1 30
-7 3 -9 8 -8 20 2 14 11 20 11 32 1 12 -10 15 -9 15 6 1 18 1 18 11 1 8 -14
18 -16 47 -11 20 3 42 12 48 20 13 16 24 8 24 -17 0 -23 24 -31 47 -14 24 19
37 19 29 0 -6 -17 11 -20 34 -5 9 6 17 5 22 -3 6 -9 8 -8 8 2 0 11 3 11 15 1
12 -10 15 -9 15 6 0 17 1 17 13 0 7 -9 17 -16 22 -15 6 1 19 -2 29 -6 13 -6
21 -4 24 4 3 8 8 6 18 -6 13 -17 13 -17 14 2 0 11 9 28 21 38 13 12 19 13 18
5 -3 -26 1 -34 22 -35 17 -2 18 1 8 13 -10 12 -9 13 4 9 11 -5 17 3 23 27 4
18 7 36 6 41 -1 4 3 7 9 7 6 0 7 6 2 13 -4 6 5 4 20 -6 36 -23 34 -9 -3 31
-16 18 -30 40 -30 48 0 21 31 17 37 -6z m333 -104 c0 -16 -49 36 -71 73 -18
32 -15 30 25 -14 25 -27 45 -54 46 -59z m-1136 69 c-10 -8 -23 -15 -28 -15 -6
0 -1 7 10 15 10 8 23 15 28 15 6 0 1 -7 -10 -15z m-104 -19 c0 -2 -8 -10 -17
-17 -16 -13 -17 -12 -4 4 13 16 21 21 21 13z m-40 -41 c0 -14 -5 -25 -12 -25
-6 0 -20 -8 -31 -17 -20 -17 -20 -17 -14 0 4 10 7 25 7 33 0 9 4 13 9 9 6 -3
16 1 23 9 17 20 18 20 18 -9z m900 -21 c0 -8 -4 -12 -10 -9 -5 3 -10 10 -10
16 0 5 5 9 10 9 6 0 10 -7 10 -16z m-1583 -18 c-3 -8 -1 -17 6 -20 8 -3 6 -10
-7 -20 -27 -22 -33 -20 -38 8 -4 18 1 27 16 34 28 14 29 14 23 -2z m1937 -2
c3 -8 2 -12 -4 -9 -6 3 -10 10 -10 16 0 14 7 11 14 -7z m-1862 -96 c-7 -7 -12
-8 -12 -2 0 6 3 14 7 17 3 4 9 5 12 2 2 -3 -1 -11 -7 -17z m1848 6 c0 -8 -4
-12 -10 -9 -5 3 -10 10 -10 16 0 5 5 9 10 9 6 0 10 -7 10 -16z m127 -6 c-3 -8
-6 -5 -6 6 -1 11 2 17 5 13 3 -3 4 -12 1 -19z m-2251 -65 c10 -21 25 -44 32
-51 27 -29 10 -30 -20 -1 -18 17 -32 39 -30 48 1 10 -4 24 -13 31 -8 7 -15 17
-15 22 0 18 26 -10 46 -49z m2412 1 c-4 -3 -12 5 -18 18 -12 22 -12 22 6 6 10
-10 15 -20 12 -24z m-2818 -164 c0 -5 -9 -10 -20 -10 -11 0 -20 5 -20 10 0 6
9 10 20 10 11 0 20 -4 20 -10z m27 -36 c-3 -3 -12 -4 -19 -1 -8 3 -5 6 6 6 11
1 17 -2 13 -5z m2496 -126 c10 -5 15 -13 12 -19 -4 -5 -11 -6 -17 -3 -7 5 -9
0 -6 -14 4 -12 4 -22 1 -22 -7 0 -33 28 -33 36 0 4 -8 16 -17 26 -17 19 -16
19 12 12 17 -4 38 -11 48 -16z m67 12 c0 -5 -2 -10 -4 -10 -3 0 -8 5 -11 10
-3 6 -1 10 4 10 6 0 11 -4 11 -10z m-2383 -6 c-3 -3 -12 -4 -19 -1 -8 3 -5 6
6 6 11 1 17 -2 13 -5z m348 -14 c3 -5 2 -10 -4 -10 -5 0 -13 5 -16 10 -3 6 -2
10 4 10 5 0 13 -4 16 -10z m-555 -20 c0 -5 -2 -10 -4 -10 -3 0 -8 5 -11 10 -3
6 -1 10 4 10 6 0 11 -4 11 -10z m-205 -20 c3 -5 1 -10 -4 -10 -6 0 -11 5 -11
10 0 6 2 10 4 10 3 0 8 -4 11 -10z m2720 -29 c3 -5 1 -12 -5 -16 -5 -3 -10 1
-10 9 0 18 6 21 15 7z"/>
<path d="M5700 4470 c-13 -8 -13 -10 2 -10 9 0 20 5 23 10 8 13 -5 13 -25 0z"/>
<path d="M4526 2875 c4 -8 11 -15 16 -15 6 0 5 6 -2 15 -7 8 -14 15 -16 15 -2
0 -1 -7 2 -15z"/>
<path d="M4680 2761 c0 -10 19 -25 25 -20 1 2 -3 10 -11 17 -8 7 -14 8 -14 3z"/>
<path d="M3850 2705 c0 -13 -18 -20 -42 -16 -5 0 -8 -5 -8 -13 0 -8 14 -17 31
-21 34 -8 45 -2 33 17 -5 7 -7 21 -6 31 2 9 1 17 -2 17 -3 0 -6 -7 -6 -15z"/>
<path d="M3931 2704 c-1 -11 6 -29 15 -40 8 -10 12 -13 9 -6 -4 8 -11 26 -15
40 -7 22 -8 23 -9 6z"/>
<path d="M4086 2704 c-3 -8 -10 -13 -15 -10 -5 4 -11 1 -13 -6 -4 -10 -10 -10
-31 -1 -23 11 -27 10 -27 -2 0 -18 -16 -20 -23 -2 -3 6 -3 -4 0 -23 6 -40 23
-64 23 -34 1 19 1 19 15 0 8 -10 12 -22 10 -27 -3 -4 10 -7 30 -6 19 1 35 6
35 10 0 9 39 5 56 -6 14 -8 24 24 17 52 -5 21 -39 35 -49 20 -12 -20 -23 -8
-14 17 12 31 12 34 1 34 -5 0 -12 -7 -15 -16z m-14 -86 c-7 -7 -12 -8 -12 -2
0 6 3 14 7 17 3 4 9 5 12 2 2 -3 -1 -11 -7 -17z"/>
<path d="M3615 6570 c-3 -5 -1 -10 4 -10 6 0 11 5 11 10 0 6 -2 10 -4 10 -3 0
-8 -4 -11 -10z"/>
<path d="M4237 6574 c-12 -12 -8 -164 4 -164 6 0 8 -11 4 -28 -3 -15 1 -60 9
-99 14 -63 14 -79 1 -140 -18 -82 -71 -278 -79 -292 -4 -5 -9 -43 -11 -83 -3
-40 -10 -86 -17 -101 -6 -15 -8 -49 -5 -76 4 -30 1 -53 -6 -60 -6 -6 -9 -11
-6 -12 2 0 11 -2 19 -4 49 -12 70 -14 70 -7 0 5 10 8 21 8 26 -1 35 18 17 33
-7 6 -26 21 -42 34 -52 42 -53 181 -3 327 37 109 67 208 67 225 0 8 6 15 14
15 21 0 8 126 -17 158 -7 9 -7 16 1 24 8 8 7 19 -4 39 -9 19 -13 49 -11 86 4
58 -12 131 -26 117z"/>
<path d="M5850 6549 c0 -5 5 -7 10 -4 6 3 10 8 10 11 0 2 -4 4 -10 4 -5 0 -10
-5 -10 -11z"/>
<path d="M3593 6543 c-15 -5 -17 -23 -4 -23 5 0 11 7 15 15 3 8 4 15 3 14 -1
0 -8 -3 -14 -6z"/>
<path d="M3900 6491 c0 -5 -3 -18 -6 -28 -4 -14 -4 -15 4 -4 17 23 33 -23 29
-81 -5 -57 7 -106 30 -125 8 -6 18 -36 22 -65 l7 -53 13 37 c7 21 10 47 6 58
-4 12 -2 20 5 20 13 0 3 46 -18 78 -10 16 -12 26 -5 30 6 4 10 19 8 34 -2 21
0 25 13 21 10 -3 -5 15 -33 40 -48 44 -75 58 -75 38z"/>
<path d="M3500 6475 c-7 -8 -19 -15 -26 -15 -8 0 -14 -4 -14 -10 0 -5 -6 -10
-13 -10 -7 0 -18 -9 -25 -21 -8 -12 -19 -18 -28 -15 -8 3 -12 2 -9 -3 3 -5 -5
-13 -17 -17 -12 -3 -27 -12 -34 -18 -9 -9 -4 -12 22 -13 23 -1 34 4 34 13 0 8
8 15 18 16 9 0 22 2 27 3 6 2 16 3 23 4 6 0 12 10 12 20 0 11 15 28 35 40 36
21 46 41 21 41 -7 0 -19 -7 -26 -15z"/>
<path d="M3830 6436 c0 -8 5 -18 10 -21 6 -3 10 1 10 9 0 8 -4 18 -10 21 -5 3
-10 -1 -10 -9z"/>
<path d="M3710 6361 c0 -6 5 -13 10 -16 6 -3 10 1 10 9 0 9 -4 16 -10 16 -5 0
-10 -4 -10 -9z"/>
<path d="M4787 6343 c9 -13 22 -23 30 -23 9 0 13 -6 10 -14 -4 -9 3 -16 18
-19 36 -6 37 1 4 32 -16 16 -29 33 -29 39 0 7 -11 11 -24 10 -22 -2 -23 -3 -9
-25z"/>
<path d="M3680 6331 c0 -6 5 -13 10 -16 15 -9 12 -27 -2 -19 -7 4 -4 -2 6 -14
24 -28 27 -25 19 21 -3 22 -11 37 -19 37 -8 0 -14 -4 -14 -9z"/>
<path d="M3641 6293 c4 -25 -3 -34 -20 -28 -29 9 -36 -14 -13 -37 20 -21 60
-19 47 2 -3 5 1 10 9 10 24 0 29 20 10 41 -17 19 -35 25 -33 12z"/>
<path d="M2937 6276 c-3 -8 1 -17 9 -20 22 -9 23 -8 17 14 -6 23 -19 26 -26 6z"/>
<path d="M4311 6256 c7 -15 15 -23 17 -16 3 7 -3 19 -13 28 -15 16 -16 15 -4
-12z"/>
<path d="M4870 6260 c0 -5 5 -10 10 -10 6 0 10 5 10 10 0 6 -4 10 -10 10 -5 0
-10 -4 -10 -10z"/>
<path d="M3542 6209 c4 -31 35 -49 48 -29 20 31 12 50 -21 50 -25 0 -30 -3
-27 -21z"/>
<path d="M4890 6221 c0 -5 9 -7 20 -4 11 3 20 7 20 9 0 2 -9 4 -20 4 -11 0
-20 -4 -20 -9z"/>
<path d="M2975 6080 c3 -5 8 -10 11 -10 2 0 4 5 4 10 0 6 -5 10 -11 10 -5 0
-7 -4 -4 -10z"/>
<path d="M2925 6055 c15 -12 17 -18 7 -24 -7 -4 -15 -17 -16 -27 -2 -10 -9
-19 -17 -19 -23 -1 -42 -16 -32 -26 14 -14 73 -29 73 -19 0 5 -6 11 -12 13
-10 4 -10 6 0 6 6 1 12 7 12 15 0 9 8 12 28 8 23 -5 25 -3 14 10 -11 13 -9 19
12 36 l26 20 -39 6 c-22 3 -48 9 -58 12 -16 5 -16 4 2 -11z"/>
<path d="M3952 6031 c-9 -15 -11 -36 -7 -59 6 -30 8 -33 16 -19 6 9 9 36 7 60
-3 41 -3 41 -16 18z"/>
<path d="M4820 5952 c-17 -12 -22 -13 -15 -3 9 15 4 14 -47 -11 -16 -7 -28
-17 -28 -21 0 -4 10 -3 21 4 12 6 24 7 28 2 3 -5 28 -8 54 -8 27 0 51 -3 54
-8 6 -9 33 11 33 25 0 6 -13 8 -31 4 -27 -5 -30 -4 -24 14 8 25 -10 26 -45 2z"/>
<path d="M2850 5925 c8 -10 9 -15 2 -15 -6 0 -9 -7 -5 -16 4 -12 0 -14 -23 -8
-28 6 -28 6 -9 -9 23 -19 45 -22 45 -6 0 5 4 8 8 5 5 -3 18 5 30 19 l21 24
-31 10 c-42 15 -53 14 -38 -4z"/>
<path d="M4584 5819 c-3 -6 -1 -16 5 -22 8 -8 11 -5 11 11 0 24 -5 28 -16 11z"/>
<path d="M4540 5760 c0 -8 5 -22 10 -30 9 -13 10 -13 10 0 0 8 -5 22 -10 30
-9 13 -10 13 -10 0z"/>
<path d="M4101 5516 c-8 -10 -9 -16 -1 -21 5 -3 13 1 16 10 9 22 -1 29 -15 11z"/>
<path d="M3960 5505 c-18 -21 -5 -31 15 -12 8 9 11 18 6 21 -5 3 -14 -1 -21
-9z"/>
<path d="M4300 5505 c7 -9 15 -13 17 -11 7 7 -7 26 -19 26 -6 0 -6 -6 2 -15z"/>
<path d="M4330 5501 c0 -6 5 -13 10 -16 6 -3 10 1 10 9 0 9 -4 16 -10 16 -5 0
-10 -4 -10 -9z"/>
<path d="M4851 5464 c0 -11 3 -14 6 -6 3 7 2 16 -1 19 -3 4 -6 -2 -5 -13z"/>
<path d="M4891 5444 c0 -11 3 -14 6 -6 3 7 2 16 -1 19 -3 4 -6 -2 -5 -13z"/>
<path d="M4131 5354 c0 -11 3 -14 6 -6 3 7 2 16 -1 19 -3 4 -6 -2 -5 -13z"/>
<path d="M4570 5341 c0 -6 5 -13 10 -16 6 -3 10 1 10 9 0 9 -4 16 -10 16 -5 0
-10 -4 -10 -9z"/>
<path d="M5920 5040 c0 -5 5 -10 11 -10 5 0 7 5 4 10 -3 6 -8 10 -11 10 -2 0
-4 -4 -4 -10z"/>
<path d="M2208 4833 c7 -3 16 -2 19 1 4 3 -2 6 -13 5 -11 0 -14 -3 -6 -6z"/>
<path d="M6347 4472 c-9 -2 -15 -7 -12 -12 7 -11 -32 -33 -45 -25 -6 3 -10 2
-10 -3 0 -16 76 -63 92 -57 9 4 19 2 23 -4 10 -17 -23 -25 -42 -10 -15 12 -16
12 -10 -4 4 -10 7 -23 7 -28 0 -17 52 -31 61 -17 5 7 4 17 -1 22 -17 17 -11
28 13 21 16 -5 10 3 -20 30 -24 21 -43 42 -43 47 0 5 4 7 9 4 4 -3 16 0 25 7
16 12 16 14 -6 23 -12 6 -31 8 -41 6z"/>
<path d="M6296 4347 c3 -10 9 -15 12 -12 3 3 0 11 -7 18 -10 9 -11 8 -5 -6z"/>
<path d="M6320 4317 c0 -15 31 -47 46 -47 5 1 -1 9 -13 19 -12 10 -20 21 -17
24 3 3 1 8 -5 12 -6 3 -11 0 -11 -8z"/>
<path d="M2925 2610 c-3 -5 3 -10 14 -10 12 0 21 -5 21 -12 0 -6 2 -9 5 -6 3
3 3 13 -1 22 -7 18 -29 22 -39 6z"/>
<path d="M2990 2555 c-7 -9 -8 -15 -2 -15 5 0 12 7 16 15 3 8 4 15 2 15 -2 0
-9 -7 -16 -15z"/>
<path d="M5116 2375 c4 -8 8 -15 10 -15 2 0 4 7 4 15 0 8 -4 15 -10 15 -5 0
-7 -7 -4 -15z"/>
<path d="M2710 2370 c0 -5 5 -10 11 -10 5 0 7 5 4 10 -3 6 -8 10 -11 10 -2 0
-4 -4 -4 -10z"/>
<path d="M3430 2370 c0 -5 5 -10 11 -10 5 0 7 5 4 10 -3 6 -8 10 -11 10 -2 0
-4 -4 -4 -10z"/>
<path d="M1957 2278 c-6 -40 17 -73 33 -48 5 8 8 21 5 28 -3 8 -5 22 -5 33 0
32 -27 21 -33 -13z"/>
<path d="M2590 2306 c0 -2 7 -7 16 -10 8 -3 12 -2 9 4 -6 10 -25 14 -25 6z"/>
<path d="M4707 2231 c-4 -17 -3 -21 5 -13 5 5 8 16 6 23 -3 8 -7 3 -11 -10z"/>
<path d="M3703 2223 c-18 -9 -33 -20 -33 -25 0 -9 30 1 50 17 8 7 22 15 30 18
13 5 13 5 0 6 -8 0 -30 -8 -47 -16z"/>
<path d="M1940 2180 c0 -19 3 -21 12 -12 9 9 9 15 0 24 -9 9 -12 7 -12 -12z"/>
<path d="M2146 2144 c-16 -14 -35 -23 -43 -19 -11 4 -13 1 -9 -11 3 -8 6 -20
6 -25 0 -5 7 -9 15 -9 8 0 15 5 15 10 0 6 7 10 15 10 8 0 14 3 13 8 -1 4 4 18
11 30 18 33 11 34 -23 6z"/>
<path d="M2022 2124 c-9 -15 -14 -16 -36 -6 -22 10 -24 9 -18 -6 11 -27 36
-62 44 -62 5 0 8 9 8 21 0 18 4 20 30 14 32 -7 38 2 18 24 -11 11 -10 12 1 6
9 -5 12 -3 9 6 -7 21 -45 23 -56 3z"/>
<path d="M2778 2103 c7 -3 16 -2 19 1 4 3 -2 6 -13 5 -11 0 -14 -3 -6 -6z"/>
<path d="M2160 2065 c-7 -9 -21 -13 -35 -9 -13 3 -26 1 -29 -4 -9 -16 4 -42
22 -42 8 0 12 3 8 7 -4 4 8 14 25 23 18 8 34 21 37 28 5 17 -13 15 -28 -3z"/>
<path d="M2344 2055 c0 -16 7 -25 18 -25 23 0 32 18 18 35 -19 23 -38 18 -36
-10z"/>
<path d="M1960 2055 c0 -3 8 -22 17 -43 14 -32 17 -34 20 -15 5 24 -12 63 -27
63 -6 0 -10 -2 -10 -5z"/>
<path d="M2035 2029 c-10 -15 1 -23 20 -15 9 3 13 10 10 16 -8 13 -22 13 -30
-1z"/>
<path d="M2350 1981 c0 -45 8 -51 34 -22 23 25 17 55 -12 59 -20 3 -22 -1 -22
-37z"/>
<path d="M2026 1938 c9 -30 10 -31 26 -22 7 5 21 7 31 6 9 -2 17 2 17 7 0 6
-17 11 -37 11 -28 0 -34 3 -23 10 13 8 12 10 -3 10 -14 0 -17 -5 -11 -22z"/>
<path d="M2000 1913 c0 -14 41 -75 46 -70 10 10 -8 53 -27 65 -10 7 -19 9 -19
5z"/>
<path d="M2128 1909 c-2 -5 -18 -11 -35 -11 -18 -1 -30 -5 -27 -9 8 -13 73 -6
78 8 3 7 1 15 -4 18 -4 3 -10 0 -12 -6z"/>
<path d="M1940 1872 c-31 -34 -41 -51 -46 -76 -3 -21 0 -26 16 -26 l20 0 -20
-40 c-18 -36 -19 -39 -3 -33 29 11 42 35 39 73 -2 19 0 40 4 45 11 15 21 75
12 74 -4 0 -14 -8 -22 -17z"/>
<path d="M2505 1780 c-3 -5 -1 -10 4 -10 6 0 11 5 11 10 0 6 -2 10 -4 10 -3 0
-8 -4 -11 -10z"/>
<path d="M7470 1716 c0 -9 5 -16 10 -16 6 0 10 4 10 9 0 6 -4 13 -10 16 -5 3
-10 -1 -10 -9z"/>
<path d="M1952 1697 c-26 -27 -30 -59 -7 -51 18 7 20 -7 3 -24 -15 -15 -7 -24
11 -13 11 7 27 111 17 111 -1 0 -12 -10 -24 -23z"/>
<path d="M7510 1710 c0 -5 5 -10 11 -10 5 0 7 5 4 10 -3 6 -8 10 -11 10 -2 0
-4 -4 -4 -10z"/>
<path d="M2050 1641 c0 -26 -4 -31 -23 -31 -13 0 -32 -7 -43 -15 -18 -13 -18
-14 11 -20 36 -8 71 -32 61 -42 -4 -4 -16 -2 -26 5 -28 17 -40 15 -49 -10 -7
-20 -3 -26 27 -43 19 -11 40 -29 46 -40 6 -11 17 -25 25 -31 8 -6 11 -16 7
-22 -3 -6 -1 -14 6 -19 13 -8 18 -9 52 -11 13 -2 16 -7 12 -19 -4 -10 -4 -14
0 -10 4 3 23 -7 44 -23 20 -16 48 -34 63 -41 15 -7 27 -16 27 -21 0 -4 5 -8
10 -8 23 0 6 37 -30 65 -21 17 -43 40 -49 53 -6 12 -17 22 -25 22 -7 0 -17 7
-20 15 -3 9 -12 15 -20 13 -8 -2 -15 1 -15 7 -1 5 6 10 14 10 8 0 15 3 15 8 1
45 -1 49 -15 43 -12 -4 -14 0 -9 20 6 23 4 25 -14 20 -28 -9 -65 11 -58 30 3
8 0 23 -6 34 -9 14 -9 25 -1 43 10 20 9 28 -3 37 -12 10 -14 7 -14 -19z m75
-181 c-3 -5 -10 -10 -16 -10 -5 0 -9 5 -9 10 0 6 7 10 16 10 8 0 12 -4 9 -10z"/>
<path d="M1995 1640 c3 -5 13 -10 21 -10 8 0 12 5 9 10 -3 6 -13 10 -21 10 -8
0 -12 -4 -9 -10z"/>
<path d="M3813 1625 c-14 -11 -15 -14 -3 -14 8 0 24 4 34 8 17 6 17 8 4 14 -9
3 -24 -1 -35 -8z"/>
<path d="M4028 1583 c7 -3 16 -2 19 1 4 3 -2 6 -13 5 -11 0 -14 -3 -6 -6z"/>
<path d="M8280 1576 c0 -3 9 -21 21 -40 11 -19 18 -39 15 -45 -3 -5 1 -14 9
-21 34 -29 89 -200 66 -208 -16 -5 -13 -42 9 -87 13 -28 19 -34 20 -20 0 12 5
26 12 33 9 9 9 12 0 12 -9 0 -11 22 -8 78 2 55 -1 84 -10 97 -8 10 -14 30 -14
44 0 14 -12 38 -27 54 -16 17 -22 27 -15 23 18 -11 15 2 -10 37 -12 18 -22 33
-22 33 -3 5 -46 14 -46 10z"/>
<path d="M7533 1550 c-3 -11 -14 -20 -24 -20 -10 0 -24 -9 -31 -19 -9 -15 -15
-17 -25 -9 -10 8 -13 5 -13 -11 0 -13 6 -21 16 -21 11 0 14 -5 10 -16 -3 -9
-8 -28 -11 -42 -5 -23 -4 -24 4 -7 9 18 10 18 10 -7 1 -15 -3 -29 -9 -33 -6
-3 -5 -15 2 -31 9 -19 9 -30 0 -45 -10 -15 -9 -19 2 -19 21 0 14 -240 -8 -271
-9 -13 -16 -31 -16 -40 0 -25 -11 -49 -21 -49 -5 0 -9 9 -9 19 0 11 -12 29
-27 41 -16 12 -34 33 -41 48 -12 26 -13 25 -7 -15 4 -34 2 -43 -10 -43 -11 0
-15 11 -15 44 0 48 -16 70 -23 34 -4 -18 -5 -16 -5 7 0 17 -1 39 -2 50 -2 17
-3 16 -10 -5 -7 -22 -8 -21 -9 12 -1 20 3 39 8 42 5 3 7 15 4 26 -4 14 -11 19
-24 15 -16 -5 -17 -1 -13 36 5 37 3 41 -10 30 -13 -11 -16 -9 -22 13 -3 15 -4
35 -1 46 3 11 1 20 -4 20 -5 0 -9 -5 -9 -11 0 -5 -4 -8 -8 -5 -11 6 -3 64 9
72 5 3 9 13 8 22 0 14 -2 13 -9 -3 -7 -16 -9 -17 -9 -3 -1 14 -5 15 -31 5 -17
-6 -33 -20 -36 -30 -3 -10 -12 -16 -19 -13 -7 2 -21 -5 -32 -16 -10 -12 -54
-38 -98 -59 -44 -21 -98 -55 -120 -74 -25 -23 -31 -32 -16 -25 19 10 22 9 17
-2 -3 -7 -9 -21 -12 -30 -4 -10 -10 -18 -15 -18 -5 0 -20 -24 -33 -52 -24 -52
-24 -52 -25 -20 -1 18 4 43 10 54 8 15 8 19 0 14 -20 -13 -40 -62 -47 -114
l-7 -52 77 0 c42 0 79 0 84 0 4 -1 9 16 12 36 3 21 11 39 19 42 9 3 11 -1 7
-16 -4 -12 -2 -24 6 -29 31 -19 127 -43 178 -43 l56 0 30 -62 c21 -45 36 -64
53 -68 16 -4 29 -17 37 -40 11 -31 13 -32 13 -10 1 14 13 41 29 59 32 39 60
34 69 -12 5 -24 8 -27 17 -15 9 12 46 16 77 9 3 0 31 -21 63 -46 51 -40 106
-103 106 -123 0 -5 5 -13 12 -20 10 -10 16 -5 28 20 15 29 15 39 2 82 -7 27
-11 58 -8 68 5 21 -22 88 -35 88 -9 0 -9 0 -12 125 -1 50 -6 96 -11 104 -5 8
-10 71 -11 140 -3 173 -13 250 -38 283 -25 33 -37 35 -44 8z m72 -246 c2 -59
1 -65 -11 -49 -21 28 -17 141 4 120 3 -2 6 -34 7 -71z"/>
<path d="M7202 1510 c0 -14 2 -19 5 -12 2 6 2 18 0 25 -3 6 -5 1 -5 -13z"/>
<path d="M8256 1495 c4 -8 10 -12 15 -9 11 6 2 24 -11 24 -5 0 -7 -7 -4 -15z"/>
<path d="M7118 1450 c-10 -24 -16 -45 -14 -48 8 -7 37 59 34 76 -2 10 -10 -2
-20 -28z"/>
<path d="M7964 1468 c3 -12 0 -18 -9 -18 -18 0 -19 -30 -16 -315 5 -387 8
-410 66 -417 23 -3 40 1 47 10 16 18 14 340 -2 402 -23 89 -23 100 -5 114 17
12 17 15 2 37 -10 13 -17 33 -17 46 0 12 -4 25 -10 28 -5 3 -10 26 -10 51 0
33 -4 46 -17 51 -10 4 -22 11 -26 17 -6 7 -7 4 -3 -6z"/>
<path d="M1989 1457 c15 -19 41 -23 41 -7 0 6 -4 10 -9 10 -5 0 -18 3 -28 7
-16 6 -16 5 -4 -10z"/>
<path d="M624 1413 c-8 -2 -9 -18 -4 -46 6 -29 4 -50 -6 -69 -13 -26 -22 -93
-23 -191 -1 -30 -5 -46 -11 -42 -6 3 -13 -2 -17 -12 -6 -14 -9 -10 -14 17 l-6
35 -12 -30 c-9 -23 -14 -26 -21 -15 -7 11 -11 8 -19 -13 -6 -15 -12 -27 -14
-27 -2 0 -3 26 -3 59 0 32 -5 65 -11 72 -8 10 -9 20 -3 29 6 8 9 22 9 30 0 10
-3 8 -9 -5 -6 -16 -9 -17 -13 -5 -3 8 -14 39 -24 68 l-19 54 -25 -32 c-13 -17
-35 -43 -48 -57 -69 -77 -65 -209 8 -288 53 -57 108 -168 115 -231 9 -78 22
-109 52 -123 21 -9 28 -8 41 5 15 15 18 15 28 0 7 -9 25 -19 41 -22 32 -6 77
-41 87 -67 4 -10 12 -14 22 -11 11 5 15 -1 15 -24 0 -17 5 -34 10 -37 6 -3 10
-12 10 -20 0 -29 20 -65 33 -59 11 4 12 17 5 65 -10 64 -5 95 13 84 6 -4 13 2
16 14 8 31 24 21 54 -33 30 -54 45 -43 27 21 -14 51 -34 68 -90 76 -53 7 -81
-11 -58 -38 10 -12 10 -15 -1 -15 -21 0 -58 122 -46 151 15 39 14 199 -1 211
-12 11 -12 28 4 81 3 9 1 17 -5 17 -6 0 -11 -7 -11 -15 0 -8 -5 -15 -10 -15
-10 0 -6 32 11 78 14 37 11 162 -3 162 -7 0 -5 5 5 11 12 7 15 17 11 35 -3 13
-2 24 4 24 5 0 12 16 15 36 5 27 1 43 -12 60 -10 13 -22 20 -26 16 -4 -4 -4 4
0 18 8 24 7 24 -18 7 -21 -14 -28 -14 -34 -3 -4 7 -13 11 -19 9z m56 -252 c0
-6 -4 -13 -10 -16 -5 -3 -10 1 -10 9 0 9 5 16 10 16 6 0 10 -4 10 -9z m30
-291 c0 -5 -5 -10 -11 -10 -5 0 -7 5 -4 10 3 6 8 10 11 10 2 0 4 -4 4 -10z"/>
<path d="M1021 1283 c-8 -27 -13 -52 -11 -58 1 -5 3 -21 4 -35 1 -14 8 -43 15
-65 10 -28 11 -40 2 -43 -13 -4 -14 -51 -1 -72 5 -9 5 -17 0 -20 -6 -3 -13
-62 -16 -131 -8 -151 -9 -127 5 -229 6 -46 11 -88 11 -93 0 -5 12 -7 27 -4 42
8 69 -8 105 -62 18 -28 40 -51 49 -51 10 0 19 -12 24 -32 l7 -33 8 34 c5 19 4
44 0 56 -12 32 -16 105 -6 102 31 -7 17 144 -18 198 -12 18 -16 40 -14 64 4
31 -20 128 -47 195 -7 16 -6 17 13 7 26 -14 27 -11 7 36 -17 41 -19 79 -5 88
6 3 7 18 4 33 -9 36 -56 112 -70 112 -7 0 -15 7 -18 16 -3 9 -13 14 -20 11 -8
-3 -17 1 -20 9 -10 26 -22 15 -35 -33z m114 -192 c3 -5 1 -12 -5 -16 -5 -3
-10 1 -10 9 0 18 6 21 15 7z"/>
<path d="M456 1283 c-11 -11 -6 -23 9 -23 8 0 15 4 15 9 0 13 -16 22 -24 14z"/>
<path d="M1437 1278 c-2 -7 0 -21 5 -30 10 -21 -2 -24 -22 -5 -7 6 0 -5 16
-25 16 -21 33 -38 37 -38 5 0 6 -4 2 -10 -3 -5 1 -24 8 -42 9 -21 13 -62 11
-117 -3 -90 15 -182 41 -211 8 -9 15 -28 15 -41 0 -14 6 -31 13 -38 8 -10 8
-12 0 -7 -20 11 -25 -12 -9 -46 8 -18 17 -46 21 -63 8 -29 8 -30 14 -6 8 32
31 39 38 13 3 -12 16 -28 29 -37 17 -11 25 -28 30 -65 4 -31 11 -49 18 -47 10
4 13 142 4 241 -4 46 -28 63 -28 20 0 -57 -13 -11 -20 73 -5 48 -14 111 -20
138 -7 28 -14 63 -15 78 -3 31 -11 42 -27 42 -6 0 -13 6 -16 13 -2 7 2 10 12
6 24 -9 20 13 -13 81 -30 61 -63 99 -108 122 -31 16 -30 16 -36 1z m153 -170
c0 -5 -4 -8 -10 -8 -5 0 -10 10 -10 23 0 18 2 19 10 7 5 -8 10 -18 10 -22z
m11 -245 c-9 -16 -10 -16 -11 -1 0 9 3 25 7 35 7 16 8 17 11 1 2 -10 -1 -25
-7 -35z"/>
<path d="M2350 1236 c0 -9 5 -16 10 -16 6 0 10 4 10 9 0 6 -4 13 -10 16 -5 3
-10 -1 -10 -9z"/>
<path d="M7253 1235 c-3 -9 -3 -18 -1 -21 3 -3 8 4 11 16 6 23 -1 27 -10 5z"/>
<path d="M8500 1139 c0 -5 5 -7 10 -4 6 3 10 8 10 11 0 2 -4 4 -10 4 -5 0 -10
-5 -10 -11z"/>
<path d="M6391 1105 c0 -11 6 -28 13 -37 17 -22 56 -24 56 -2 0 10 -6 13 -17
10 -23 -7 -39 4 -46 29 l-5 20 -1 -20z"/>
<path d="M1863 1067 c4 -12 97 -52 97 -41 0 2 -8 13 -17 23 -22 22 -87 37 -80
18z"/>
<path d="M6492 1053 c2 -10 11 -19 21 -21 16 -3 17 -1 5 17 -16 25 -31 27 -26
4z"/>
<path d="M1830 1040 c0 -5 7 -16 16 -25 9 -9 14 -25 11 -35 -7 -28 2 -25 13 5
5 14 17 25 27 25 15 0 15 2 -2 13 -26 18 -65 28 -65 17z"/>
<path d="M2293 1035 c-10 -10 -9 -15 4 -19 21 -8 27 -1 16 17 -6 12 -10 13
-20 2z"/>
<path d="M6411 1017 c-1 -13 -6 -17 -18 -13 -10 3 -29 -3 -42 -13 -24 -18 -24
-19 57 -20 65 -1 82 1 82 13 0 19 -20 26 -43 14 -13 -7 -19 -4 -27 14 -7 18
-9 19 -9 5z"/>
<path d="M8447 1016 c-11 -11 -17 -12 -26 -3 -8 8 -11 7 -11 -5 0 -27 18 -31
45 -9 14 10 21 22 16 25 -5 4 -16 0 -24 -8z"/>
<path d="M8376 955 c2 -32 0 -55 -6 -55 -6 0 -10 11 -10 25 0 34 -16 32 -23
-2 -3 -16 -8 -39 -12 -53 -5 -17 -4 -21 3 -11 7 10 10 6 10 -14 0 -49 19 -50
26 -1 8 48 19 57 35 29 15 -27 24 -8 24 47 0 34 -6 56 -18 70 -28 31 -34 24
-29 -35z"/>
<path d="M6516 985 c-3 -8 -1 -15 4 -15 6 0 10 7 10 15 0 8 -2 15 -4 15 -2 0
-6 -7 -10 -15z"/>
<path d="M6158 978 c5 -5 16 -8 23 -6 8 3 3 7 -10 11 -17 4 -21 3 -13 -5z"/>
<path d="M6280 980 c0 -5 7 -10 15 -10 8 0 15 5 15 10 0 6 -7 10 -15 10 -8 0
-15 -4 -15 -10z"/>
<path d="M1816 836 c3 -9 11 -16 16 -16 13 0 5 23 -10 28 -7 2 -10 -2 -6 -12z"/>
<path d="M8310 829 c0 -5 5 -7 10 -4 6 3 10 8 10 11 0 2 -4 4 -10 4 -5 0 -10
-5 -10 -11z"/>
<path d="M1726 773 c1 -16 2 -45 3 -67 1 -30 4 -37 16 -32 8 3 21 9 29 12 10
4 16 -2 19 -18 3 -19 5 -18 6 7 1 20 -6 34 -19 42 -10 7 -22 28 -26 48 -7 41
-31 48 -28 8z"/>
<path d="M8276 784 c-4 -9 -4 -19 -1 -22 2 -3 7 3 11 12 4 9 4 19 1 22 -2 3
-7 -3 -11 -12z"/>
<path d="M1790 740 c0 -5 5 -10 11 -10 5 0 7 5 4 10 -3 6 -8 10 -11 10 -2 0
-4 -4 -4 -10z"/>
<path d="M8102 730 c0 -14 2 -19 5 -12 2 6 2 18 0 25 -3 6 -5 1 -5 -13z"/>
<path d="M740 720 c0 -11 2 -20 4 -20 2 0 6 9 9 20 3 11 1 20 -4 20 -5 0 -9
-9 -9 -20z"/>
<path d="M7813 705 c-13 -29 1 -34 17 -6 12 23 13 31 3 31 -5 0 -13 -11 -20
-25z"/>
<path d="M8232 716 c1 -10 8 -17 13 -17 15 1 12 24 -3 29 -9 3 -13 -2 -10 -12z"/>
<path d="M8121 694 c0 -11 3 -14 6 -6 3 7 2 16 -1 19 -3 4 -6 -2 -5 -13z"/>
<path d="M7715 670 c-3 -5 -1 -10 4 -10 6 0 11 5 11 10 0 6 -2 10 -4 10 -3 0
-8 -4 -11 -10z"/>
<path d="M8100 651 c0 -34 15 -42 23 -11 3 10 -1 24 -9 31 -11 9 -14 6 -14
-20z"/>
<path d="M7826 633 c8 -34 20 -48 28 -34 10 16 -5 61 -20 61 -11 0 -13 -7 -8
-27z"/>
<path d="M751 634 c0 -11 3 -14 6 -6 3 7 2 16 -1 19 -3 4 -6 -2 -5 -13z"/>
<path d="M1541 591 c-17 -32 -14 -50 9 -44 13 3 20 14 20 29 0 31 -16 39 -29
15z"/>
<path d="M8091 584 c0 -11 3 -14 6 -6 3 7 2 16 -1 19 -3 4 -6 -2 -5 -13z"/>
<path d="M8064 572 c-6 -4 -14 -17 -18 -29 -6 -18 -4 -20 14 -16 13 3 20 14
20 29 0 27 0 27 -16 16z"/>
<path d="M1341 531 c-8 -6 -11 -16 -6 -31 5 -15 4 -20 -4 -16 -7 5 -9 1 -5 -8
7 -18 30 -21 39 -5 4 6 14 8 22 5 10 -4 13 0 11 12 -2 9 -10 17 -17 17 -8 0
-17 8 -20 17 -4 12 -11 14 -20 9z"/>
<path d="M1433 504 c-10 -22 -8 -27 21 -49 18 -14 37 -25 42 -25 5 0 2 5 -7
10 -9 5 -20 25 -23 45 -9 44 -18 50 -33 19z"/>
<path d="M1310 420 c0 -12 -7 -20 -16 -20 -14 0 -13 -4 4 -31 10 -17 23 -32
27 -32 4 -1 8 22 9 51 1 36 -3 52 -11 52 -7 0 -13 -9 -13 -20z"/>
<path d="M1310 299 c0 -11 5 -17 10 -14 6 3 10 13 10 21 0 8 -4 14 -10 14 -5
0 -10 -9 -10 -21z"/>
</g>
</svg>
